<?xml version="1.0" encoding="UTF-8" standalone="no"?>
<!DOCTYPE svg PUBLIC "-//W3C//DTD SVG 1.1//EN"
 "http://www.w3.org/Graphics/SVG/1.1/DTD/svg11.dtd">
<!-- Generated by graphviz version 12.2.1 (0)
 -->
<!-- Title: DFA Pages: 1 -->
<svg width="246pt" height="360pt"
 viewBox="0.00 0.00 246.20 360.00" xmlns="http://www.w3.org/2000/svg" xmlns:xlink="http://www.w3.org/1999/xlink">
<g id="graph0" class="graph" transform="scale(0.482981 0.482981) rotate(0) translate(4 741.37)">
<title>DFA</title>
<polygon fill="white" stroke="none" points="-4,4 -4,-741.37 505.76,-741.37 505.76,4 -4,4"/>
<!-- q15 -->
<g id="node1" class="node">
<title>q15</title>
<ellipse fill="lightblue" stroke="black" cx="197.3" cy="-544.99" rx="47.38" ry="47.38"/>
<ellipse fill="none" stroke="black" cx="197.3" cy="-544.99" rx="51.38" ry="51.38"/>
<text text-anchor="middle" x="197.3" y="-548.94" font-family="Times,serif" font-size="14.00">q15</text>
<text text-anchor="middle" x="197.3" y="-531.69" font-family="Times,serif" font-size="14.00">RULE2</text>
</g>
<!-- q15&#45;&gt;q15 -->
<g id="edge9" class="edge">
<title>q15&#45;&gt;q15</title>
<path fill="none" stroke="black" d="M193.98,-596.73C194.36,-607.03 195.46,-614.37 197.3,-614.37 198.34,-614.37 199.14,-612.05 199.71,-608.18"/>
<polygon fill="black" stroke="black" points="203.2,-608.49 200.5,-598.24 196.22,-607.93 203.2,-608.49"/>
<text text-anchor="middle" x="197.3" y="-618.32" font-family="Times,serif" font-size="14.00">0</text>
</g>
<!-- q15&#45;&gt;q15 -->
<g id="edge10" class="edge">
<title>q15&#45;&gt;q15</title>
<path fill="none" stroke="black" d="M190.4,-596.15C190.1,-615.93 192.4,-632.37 197.3,-632.37 201.25,-632.37 203.51,-621.73 204.08,-607.26"/>
<polygon fill="black" stroke="black" points="207.58,-607.7 204.19,-597.66 200.58,-607.63 207.58,-607.7"/>
<text text-anchor="middle" x="197.3" y="-636.32" font-family="Times,serif" font-size="14.00">1</text>
</g>
<!-- q15&#45;&gt;q15 -->
<g id="edge11" class="edge">
<title>q15&#45;&gt;q15</title>
<path fill="none" stroke="black" d="M187.43,-595.68C185.54,-624.12 188.84,-650.37 197.3,-650.37 204.61,-650.37 208.07,-630.8 207.66,-607.16"/>
<polygon fill="black" stroke="black" points="211.16,-607.04 207.24,-597.19 204.16,-607.33 211.16,-607.04"/>
<text text-anchor="middle" x="197.3" y="-654.32" font-family="Times,serif" font-size="14.00">a</text>
</g>
<!-- q15&#45;&gt;q15 -->
<g id="edge12" class="edge">
<title>q15&#45;&gt;q15</title>
<path fill="none" stroke="black" d="M184.98,-595.37C180.89,-631.89 185,-668.37 197.3,-668.37 208.35,-668.37 212.79,-638.92 210.62,-606.45"/>
<polygon fill="black" stroke="black" points="214.14,-606.52 209.76,-596.87 207.17,-607.14 214.14,-606.52"/>
<text text-anchor="middle" x="197.3" y="-672.32" font-family="Times,serif" font-size="14.00">b</text>
</g>
<!-- q18 -->
<g id="node3" class="node">
<title>q18</title>
<ellipse fill="lightgrey" stroke="black" cx="471.6" cy="-283.99" rx="30.16" ry="30.16"/>
<text text-anchor="middle" x="471.6" y="-279.32" font-family="Times,serif" font-size="14.00">q18</text>
</g>
<!-- q15&#45;&gt;q18 -->
<g id="edge13" class="edge">
<title>q15&#45;&gt;q18</title>
<path fill="none" stroke="black" d="M231.19,-584.04C241.61,-594.4 253.8,-604.72 266.68,-611.99 327.33,-646.27 376.97,-663.91 423.43,-611.99 460.52,-570.55 468.49,-404.65 470.17,-325.9"/>
<polygon fill="black" stroke="black" points="473.66,-326.06 470.35,-316 466.67,-325.93 473.66,-326.06"/>
<text text-anchor="middle" x="345.06" y="-648.6" font-family="Times,serif" font-size="14.00">2</text>
</g>
<!-- q15&#45;&gt;q18 -->
<g id="edge14" class="edge">
<title>q15&#45;&gt;q18</title>
<path fill="none" stroke="black" d="M244.5,-566.17C296.36,-586.38 379.03,-607.28 423.43,-558.99 454.12,-525.62 465.14,-394.04 468.86,-325.7"/>
<polygon fill="black" stroke="black" points="472.33,-326.19 469.35,-316.02 465.34,-325.83 472.33,-326.19"/>
<text text-anchor="middle" x="345.06" y="-592.46" font-family="Times,serif" font-size="14.00">c</text>
</g>
<!-- q15&#45;&gt;q18 -->
<g id="edge15" class="edge">
<title>q15&#45;&gt;q18</title>
<path fill="none" stroke="black" d="M248.63,-551.83C300.17,-555.73 378.87,-552.57 423.43,-505.99 447.77,-480.56 461.11,-382.47 466.95,-325.55"/>
<polygon fill="black" stroke="black" points="470.4,-326.21 467.9,-315.91 463.43,-325.52 470.4,-326.21"/>
<text text-anchor="middle" x="345.06" y="-556.72" font-family="Times,serif" font-size="14.00">$</text>
</g>
<!-- q15&#45;&gt;q18 -->
<g id="edge16" class="edge">
<title>q15&#45;&gt;q18</title>
<path fill="none" stroke="black" d="M245.23,-525.79C260.62,-519.59 277.84,-512.77 293.68,-506.74 350.97,-484.94 381.95,-505.12 423.43,-459.99 457.17,-423.3 467.24,-365.1 470,-325.77"/>
<polygon fill="black" stroke="black" points="473.49,-326.15 470.55,-315.97 466.5,-325.76 473.49,-326.15"/>
<text text-anchor="middle" x="345.06" y="-510.69" font-family="Times,serif" font-size="14.00">_</text>
</g>
<!-- q17 -->
<g id="node2" class="node">
<title>q17</title>
<ellipse fill="lightblue" stroke="black" cx="345.06" cy="-211.99" rx="47.38" ry="47.38"/>
<ellipse fill="none" stroke="black" cx="345.06" cy="-211.99" rx="51.38" ry="51.38"/>
<text text-anchor="middle" x="345.06" y="-215.94" font-family="Times,serif" font-size="14.00">q17</text>
<text text-anchor="middle" x="345.06" y="-198.69" font-family="Times,serif" font-size="14.00">RULE1</text>
</g>
<!-- q17&#45;&gt;q18 -->
<g id="edge33" class="edge">
<title>q17&#45;&gt;q18</title>
<path fill="none" stroke="black" d="M358.47,-262.03C368.47,-290.83 385.73,-324.66 414.43,-341.99 429.38,-351.02 443.07,-337.53 453.2,-321.3"/>
<polygon fill="black" stroke="black" points="456.08,-323.32 457.98,-312.9 450,-319.86 456.08,-323.32"/>
<text text-anchor="middle" x="418.93" y="-348.66" font-family="Times,serif" font-size="14.00">0</text>
</g>
<!-- q17&#45;&gt;q18 -->
<g id="edge34" class="edge">
<title>q17&#45;&gt;q18</title>
<path fill="none" stroke="black" d="M368.85,-257.54C380.03,-274.76 395.27,-292.49 414.43,-301.99 420.87,-305.19 428.01,-305.28 434.97,-303.72"/>
<polygon fill="black" stroke="black" points="435.84,-307.12 444.2,-300.62 433.61,-300.49 435.84,-307.12"/>
<text text-anchor="middle" x="418.93" y="-308.48" font-family="Times,serif" font-size="14.00">1</text>
</g>
<!-- q17&#45;&gt;q18 -->
<g id="edge35" class="edge">
<title>q17&#45;&gt;q18</title>
<path fill="none" stroke="black" d="M385.77,-243.67C394.89,-250.19 404.77,-256.68 414.43,-261.99 419.94,-265.02 425.95,-267.84 431.93,-270.37"/>
<polygon fill="black" stroke="black" points="430.54,-273.59 441.12,-274.06 433.15,-267.09 430.54,-273.59"/>
<text text-anchor="middle" x="418.93" y="-270.42" font-family="Times,serif" font-size="14.00">a</text>
</g>
<!-- q17&#45;&gt;q18 -->
<g id="edge36" class="edge">
<title>q17&#45;&gt;q18</title>
<path fill="none" stroke="black" d="M394.46,-226.7C404.38,-230.6 414.51,-235.29 423.43,-240.74 429.93,-244.72 436.32,-249.66 442.21,-254.77"/>
<polygon fill="black" stroke="black" points="439.57,-257.1 449.31,-261.27 444.29,-251.93 439.57,-257.1"/>
<text text-anchor="middle" x="418.93" y="-244.69" font-family="Times,serif" font-size="14.00">b</text>
</g>
<!-- q17&#45;&gt;q18 -->
<g id="edge37" class="edge">
<title>q17&#45;&gt;q18</title>
<path fill="none" stroke="black" d="M396.6,-207.08C405.95,-208 415.31,-210.26 423.43,-214.74 436.3,-221.84 446.35,-234.12 453.81,-246.38"/>
<polygon fill="black" stroke="black" points="450.57,-247.77 458.5,-254.79 456.69,-244.36 450.57,-247.77"/>
<text text-anchor="middle" x="418.93" y="-218.69" font-family="Times,serif" font-size="14.00">2</text>
</g>
<!-- q17&#45;&gt;q18 -->
<g id="edge38" class="edge">
<title>q17&#45;&gt;q18</title>
<path fill="none" stroke="black" d="M390.38,-187C401.68,-183.85 413.44,-183.57 423.43,-189.74 442.61,-201.59 454.25,-223.86 461.17,-243.78"/>
<polygon fill="black" stroke="black" points="457.75,-244.59 464.09,-253.08 464.43,-242.49 457.75,-244.59"/>
<text text-anchor="middle" x="418.93" y="-193.69" font-family="Times,serif" font-size="14.00">c</text>
</g>
<!-- q17&#45;&gt;q18 -->
<g id="edge39" class="edge">
<title>q17&#45;&gt;q18</title>
<path fill="none" stroke="black" d="M379.26,-173.61C393.11,-162.23 409.24,-155.1 423.43,-164.74 448.89,-182.05 460.6,-215.44 466,-242.5"/>
<polygon fill="black" stroke="black" points="462.51,-242.9 467.68,-252.15 469.41,-241.7 462.51,-242.9"/>
<text text-anchor="middle" x="418.93" y="-168.69" font-family="Times,serif" font-size="14.00">$</text>
</g>
<!-- q17&#45;&gt;q18 -->
<g id="edge40" class="edge">
<title>q17&#45;&gt;q18</title>
<path fill="none" stroke="black" d="M369.78,-166.52C384.44,-144.57 404.09,-125.72 423.43,-139.74 455.39,-162.92 466.1,-208.38 469.48,-242.1"/>
<polygon fill="black" stroke="black" points="465.98,-242.29 470.27,-251.98 472.96,-241.73 465.98,-242.29"/>
<text text-anchor="middle" x="418.93" y="-143.69" font-family="Times,serif" font-size="14.00">_</text>
</g>
<!-- q18&#45;&gt;q18 -->
<g id="edge1" class="edge">
<title>q18&#45;&gt;q18</title>
<path fill="none" stroke="black" d="M470.1,-314.57C470.11,-324.38 470.61,-332.16 471.6,-332.16 472.15,-332.16 472.55,-329.7 472.8,-325.8"/>
<polygon fill="black" stroke="black" points="476.29,-326.17 473.05,-316.08 469.29,-325.98 476.29,-326.17"/>
<text text-anchor="middle" x="471.6" y="-336.11" font-family="Times,serif" font-size="14.00">0</text>
</g>
<!-- q18&#45;&gt;q18 -->
<g id="edge2" class="edge">
<title>q18&#45;&gt;q18</title>
<path fill="none" stroke="black" d="M468.79,-314.28C468.15,-332.71 469.08,-350.16 471.6,-350.16 473.58,-350.16 474.58,-339.3 474.6,-325.66"/>
<polygon fill="black" stroke="black" points="478.1,-325.73 474.42,-315.79 471.1,-325.85 478.1,-325.73"/>
<text text-anchor="middle" x="471.6" y="-354.11" font-family="Times,serif" font-size="14.00">1</text>
</g>
<!-- q18&#45;&gt;q18 -->
<g id="edge3" class="edge">
<title>q18&#45;&gt;q18</title>
<path fill="none" stroke="black" d="M467.84,-314.2C466.12,-340.42 467.38,-368.16 471.6,-368.16 475.2,-368.16 476.64,-347.86 475.91,-325.57"/>
<polygon fill="black" stroke="black" points="479.41,-325.52 475.43,-315.71 472.42,-325.87 479.41,-325.52"/>
<text text-anchor="middle" x="471.6" y="-372.11" font-family="Times,serif" font-size="14.00">a</text>
</g>
<!-- q18&#45;&gt;q18 -->
<g id="edge4" class="edge">
<title>q18&#45;&gt;q18</title>
<path fill="none" stroke="black" d="M467.1,-314.32C464.1,-347.85 465.6,-386.16 471.6,-386.16 476.94,-386.16 478.71,-355.77 476.92,-325.44"/>
<polygon fill="black" stroke="black" points="480.44,-325.55 476.21,-315.83 473.46,-326.06 480.44,-325.55"/>
<text text-anchor="middle" x="471.6" y="-390.11" font-family="Times,serif" font-size="14.00">b</text>
</g>
<!-- q18&#45;&gt;q18 -->
<g id="edge5" class="edge">
<title>q18&#45;&gt;q18</title>
<path fill="none" stroke="black" d="M466.53,-314.17C462.06,-354.77 463.74,-404.16 471.6,-404.16 478.74,-404.16 480.78,-363.25 477.71,-325.28"/>
<polygon fill="black" stroke="black" points="481.23,-325.3 476.8,-315.67 474.26,-325.96 481.23,-325.3"/>
<text text-anchor="middle" x="471.6" y="-408.11" font-family="Times,serif" font-size="14.00">2</text>
</g>
<!-- q18&#45;&gt;q18 -->
<g id="edge6" class="edge">
<title>q18&#45;&gt;q18</title>
<path fill="none" stroke="black" d="M466.11,-313.85C460.02,-361.35 461.85,-422.16 471.6,-422.16 480.58,-422.16 482.84,-370.48 478.36,-325.19"/>
<polygon fill="black" stroke="black" points="481.85,-324.89 477.25,-315.35 474.9,-325.68 481.85,-324.89"/>
<text text-anchor="middle" x="471.6" y="-426.11" font-family="Times,serif" font-size="14.00">c</text>
</g>
<!-- q18&#45;&gt;q18 -->
<g id="edge7" class="edge">
<title>q18&#45;&gt;q18</title>
<path fill="none" stroke="black" d="M465.73,-313.89C457.99,-368.09 459.95,-440.16 471.6,-440.16 482.45,-440.16 484.89,-377.6 478.92,-325.23"/>
<polygon fill="black" stroke="black" points="482.4,-324.87 477.66,-315.39 475.45,-325.76 482.4,-324.87"/>
<text text-anchor="middle" x="471.6" y="-444.11" font-family="Times,serif" font-size="14.00">$</text>
</g>
<!-- q18&#45;&gt;q18 -->
<g id="edge8" class="edge">
<title>q18&#45;&gt;q18</title>
<path fill="none" stroke="black" d="M465.4,-313.95C455.97,-374.73 458.03,-458.16 471.6,-458.16 484.34,-458.16 486.93,-384.53 479.38,-325.22"/>
<polygon fill="black" stroke="black" points="482.87,-324.87 478.01,-315.45 475.93,-325.84 482.87,-324.87"/>
<text text-anchor="middle" x="471.6" y="-462.11" font-family="Times,serif" font-size="14.00">_</text>
</g>
<!-- q16 -->
<g id="node4" class="node">
<title>q16</title>
<ellipse fill="lightgrey" stroke="black" cx="70.76" cy="-351.99" rx="30.16" ry="30.16"/>
<text text-anchor="middle" x="70.76" y="-347.32" font-family="Times,serif" font-size="14.00">q16</text>
</g>
<!-- q16&#45;&gt;q15 -->
<g id="edge23" class="edge">
<title>q16&#45;&gt;q15</title>
<path fill="none" stroke="black" d="M80.9,-380.45C88.99,-403.49 102.13,-436.23 118.93,-461.99 128.11,-476.07 139.76,-489.99 151.22,-502.28"/>
<polygon fill="black" stroke="black" points="148.6,-504.61 158.04,-509.42 153.67,-499.77 148.6,-504.61"/>
<text text-anchor="middle" x="123.43" y="-478.53" font-family="Times,serif" font-size="14.00">$</text>
</g>
<!-- q16&#45;&gt;q18 -->
<g id="edge17" class="edge">
<title>q16&#45;&gt;q18</title>
<path fill="none" stroke="black" d="M82.86,-379.82C90.54,-395.13 102.39,-412.83 118.93,-421.99 178.15,-454.8 368.77,-471.94 423.43,-431.99 456.49,-407.83 466.93,-360.27 469.94,-325.56"/>
<polygon fill="black" stroke="black" points="473.42,-326.06 470.6,-315.85 466.43,-325.59 473.42,-326.06"/>
<text text-anchor="middle" x="271.18" y="-458.23" font-family="Times,serif" font-size="14.00">0</text>
</g>
<!-- q16&#45;&gt;q18 -->
<g id="edge19" class="edge">
<title>q16&#45;&gt;q18</title>
<path fill="none" stroke="black" d="M95.1,-369.95C102.37,-374.66 110.65,-379.2 118.93,-381.99 183.26,-403.7 367.48,-445.46 423.43,-406.99 449.85,-388.83 461.48,-353.68 466.59,-325.59"/>
<polygon fill="black" stroke="black" points="470.01,-326.36 468.12,-315.94 463.1,-325.27 470.01,-326.36"/>
<text text-anchor="middle" x="271.18" y="-421.01" font-family="Times,serif" font-size="14.00">1</text>
</g>
<!-- q16&#45;&gt;q18 -->
<g id="edge21" class="edge">
<title>q16&#45;&gt;q18</title>
<path fill="none" stroke="black" d="M100.8,-357.04C174.91,-369.31 369.02,-397.47 423.43,-365.99 439.52,-356.69 450.61,-339.57 457.96,-323.38"/>
<polygon fill="black" stroke="black" points="461.11,-324.94 461.7,-314.36 454.64,-322.27 461.11,-324.94"/>
<text text-anchor="middle" x="271.18" y="-382.19" font-family="Times,serif" font-size="14.00">2</text>
</g>
<!-- q14 -->
<g id="node5" class="node">
<title>q14</title>
<ellipse fill="lightgrey" stroke="black" cx="197.3" cy="-207.99" rx="30.16" ry="30.16"/>
<text text-anchor="middle" x="197.3" y="-203.32" font-family="Times,serif" font-size="14.00">q14</text>
</g>
<!-- q16&#45;&gt;q14 -->
<g id="edge18" class="edge">
<title>q16&#45;&gt;q14</title>
<path fill="none" stroke="black" d="M97.74,-337.51C107.86,-331.11 119.12,-323 127.93,-313.99 147.89,-293.59 165.25,-266.48 177.49,-244.78"/>
<polygon fill="black" stroke="black" points="180.42,-246.71 182.17,-236.26 174.29,-243.34 180.42,-246.71"/>
<text text-anchor="middle" x="123.43" y="-325.46" font-family="Times,serif" font-size="14.00">a</text>
</g>
<!-- q16&#45;&gt;q14 -->
<g id="edge20" class="edge">
<title>q16&#45;&gt;q14</title>
<path fill="none" stroke="black" d="M90,-328.34C98.6,-317.37 109.12,-304.25 118.93,-292.74 134.89,-274.03 153.46,-253.65 168.4,-237.57"/>
<polygon fill="black" stroke="black" points="170.56,-240.39 174.82,-230.69 165.44,-235.61 170.56,-240.39"/>
<text text-anchor="middle" x="123.43" y="-296.69" font-family="Times,serif" font-size="14.00">b</text>
</g>
<!-- q16&#45;&gt;q14 -->
<g id="edge22" class="edge">
<title>q16&#45;&gt;q14</title>
<path fill="none" stroke="black" d="M82.3,-323.81C90.35,-304.84 102.79,-280.04 118.93,-261.74 130.7,-248.39 146.46,-236.67 160.68,-227.61"/>
<polygon fill="black" stroke="black" points="162.22,-230.77 168.92,-222.57 158.56,-224.8 162.22,-230.77"/>
<text text-anchor="middle" x="123.43" y="-265.69" font-family="Times,serif" font-size="14.00">c</text>
</g>
<!-- q16&#45;&gt;q14 -->
<g id="edge24" class="edge">
<title>q16&#45;&gt;q14</title>
<path fill="none" stroke="black" d="M76.04,-321.91C81.44,-294.72 93.35,-255.45 118.93,-231.74 129.05,-222.36 142.8,-216.68 155.9,-213.25"/>
<polygon fill="black" stroke="black" points="156.64,-216.67 165.65,-211.09 155.14,-209.83 156.64,-216.67"/>
<text text-anchor="middle" x="123.43" y="-235.69" font-family="Times,serif" font-size="14.00">_</text>
</g>
<!-- q14&#45;&gt;q17 -->
<g id="edge25" class="edge">
<title>q14&#45;&gt;q17</title>
<path fill="none" stroke="black" d="M222.34,-225.31C234.89,-233.3 250.9,-241.9 266.68,-245.99 275.07,-248.17 283.72,-247.53 292.05,-245.26"/>
<polygon fill="black" stroke="black" points="293.1,-248.6 301.34,-241.94 290.75,-242 293.1,-248.6"/>
<text text-anchor="middle" x="271.18" y="-251.24" font-family="Times,serif" font-size="14.00">0</text>
</g>
<!-- q14&#45;&gt;q17 -->
<g id="edge26" class="edge">
<title>q14&#45;&gt;q17</title>
<path fill="none" stroke="black" d="M227.8,-208.8C243.37,-209.23 263.09,-209.77 281.84,-210.29"/>
<polygon fill="black" stroke="black" points="281.75,-213.79 291.84,-210.56 281.94,-206.79 281.75,-213.79"/>
<text text-anchor="middle" x="271.18" y="-214.06" font-family="Times,serif" font-size="14.00">1</text>
</g>
<!-- q14&#45;&gt;q17 -->
<g id="edge28" class="edge">
<title>q14&#45;&gt;q17</title>
<path fill="none" stroke="black" d="M225.3,-195.68C240.06,-190.37 258.74,-185.94 275.68,-188.74 279.04,-189.3 282.45,-190 285.87,-190.8"/>
<polygon fill="black" stroke="black" points="284.72,-194.12 295.29,-193.3 286.52,-187.35 284.72,-194.12"/>
<text text-anchor="middle" x="271.18" y="-192.69" font-family="Times,serif" font-size="14.00">2</text>
</g>
<!-- q14&#45;&gt;q17 -->
<g id="edge32" class="edge">
<title>q14&#45;&gt;q17</title>
<path fill="none" stroke="black" d="M219,-186.48C234.04,-173.52 255.27,-160.6 275.68,-166.74 282.05,-168.66 288.38,-171.39 294.47,-174.57"/>
<polygon fill="black" stroke="black" points="292.71,-177.6 303.13,-179.52 296.19,-171.52 292.71,-177.6"/>
<text text-anchor="middle" x="271.18" y="-170.69" font-family="Times,serif" font-size="14.00">_</text>
</g>
<!-- q14&#45;&gt;q18 -->
<g id="edge27" class="edge">
<title>q14&#45;&gt;q18</title>
<path fill="none" stroke="black" d="M218.63,-186.07C236.47,-168.51 264.14,-145.15 293.68,-134.74 348.08,-115.57 376.99,-97.78 423.43,-131.99 457.55,-157.13 467.72,-206.72 470.38,-242.43"/>
<polygon fill="black" stroke="black" points="466.86,-242.19 470.92,-251.98 473.85,-241.8 466.86,-242.19"/>
<text text-anchor="middle" x="345.06" y="-138.69" font-family="Times,serif" font-size="14.00">a</text>
</g>
<!-- q14&#45;&gt;q18 -->
<g id="edge29" class="edge">
<title>q14&#45;&gt;q18</title>
<path fill="none" stroke="black" d="M211.41,-180.84C226.72,-152.61 254.98,-110.05 293.68,-91.74 334.96,-72.22 354.9,-72.74 396.43,-91.74 451.73,-117.05 466.29,-193.51 469.83,-242.04"/>
<polygon fill="black" stroke="black" points="466.33,-242.14 470.41,-251.91 473.32,-241.73 466.33,-242.14"/>
<text text-anchor="middle" x="345.06" y="-95.69" font-family="Times,serif" font-size="14.00">b</text>
</g>
<!-- q14&#45;&gt;q18 -->
<g id="edge30" class="edge">
<title>q14&#45;&gt;q18</title>
<path fill="none" stroke="black" d="M206.88,-178.92C219.36,-142.57 246.33,-81.95 293.68,-55.74 333.63,-33.63 356.61,-33.39 396.43,-55.74 429.63,-74.38 453.22,-182.69 464,-243.18"/>
<polygon fill="black" stroke="black" points="460.51,-243.5 465.67,-252.75 467.4,-242.3 460.51,-243.5"/>
<text text-anchor="middle" x="345.06" y="-59.69" font-family="Times,serif" font-size="14.00">c</text>
</g>
<!-- q14&#45;&gt;q18 -->
<g id="edge31" class="edge">
<title>q14&#45;&gt;q18</title>
<path fill="none" stroke="black" d="M203.03,-177.95C211.85,-133.42 235.52,-51.5 293.68,-17.74 333.18,5.18 357.69,6.44 396.43,-17.74 434.72,-41.65 456.78,-174.19 465.79,-242.8"/>
<polygon fill="black" stroke="black" points="462.3,-243.06 467.03,-252.53 469.24,-242.17 462.3,-243.06"/>
<text text-anchor="middle" x="345.06" y="-21.69" font-family="Times,serif" font-size="14.00">$</text>
</g>
<!-- start -->
<g id="node6" class="node">
<title>start</title>
<ellipse fill="lightgrey" stroke="black" cx="1.8" cy="-351.99" rx="1.8" ry="1.8"/>
</g>
<!-- start&#45;&gt;q16 -->
<g id="edge41" class="edge">
<title>start&#45;&gt;q16</title>
<path fill="none" stroke="black" d="M3.96,-351.99C7.3,-351.99 17.38,-351.99 28.69,-351.99"/>
<polygon fill="black" stroke="black" points="28.68,-355.49 38.68,-351.99 28.68,-348.49 28.68,-355.49"/>
</g>
</g>
</svg>
