<?xml version="1.0" encoding="UTF-8" standalone="no"?>
<!DOCTYPE svg PUBLIC "-//W3C//DTD SVG 1.1//EN"
 "http://www.w3.org/Graphics/SVG/1.1/DTD/svg11.dtd">
<!-- Generated by graphviz version 12.2.1 (0)
 -->
<!-- Title: DFA Pages: 1 -->
<svg width="576pt" height="190pt"
 viewBox="0.00 0.00 576.00 189.51" xmlns="http://www.w3.org/2000/svg" xmlns:xlink="http://www.w3.org/1999/xlink">
<g id="graph0" class="graph" transform="scale(0.99755 0.99755) rotate(0) translate(4 185.97)">
<title>DFA</title>
<polygon fill="white" stroke="none" points="-4,4 -4,-185.97 573.41,-185.97 573.41,4 -4,4"/>
<!-- q4 -->
<g id="node1" class="node">
<title>q4</title>
<ellipse fill="lightblue" stroke="black" cx="397.33" cy="-104.36" rx="38.36" ry="38.36"/>
<ellipse fill="none" stroke="black" cx="397.33" cy="-104.36" rx="42.36" ry="42.36"/>
<text text-anchor="middle" x="397.33" y="-108.31" font-family="Times,serif" font-size="14.00">q4</text>
<text text-anchor="middle" x="397.33" y="-91.06" font-family="Times,serif" font-size="14.00">TEST</text>
</g>
<!-- q4&#45;&gt;q4 -->
<g id="edge2" class="edge">
<title>q4&#45;&gt;q4</title>
<path fill="none" stroke="black" d="M385.26,-145.27C385.9,-156.32 389.92,-164.72 397.33,-164.72 401.96,-164.72 405.27,-161.44 407.26,-156.28"/>
<polygon fill="black" stroke="black" points="410.64,-157.24 409.11,-146.75 403.77,-155.9 410.64,-157.24"/>
<text text-anchor="middle" x="397.33" y="-168.67" font-family="Times,serif" font-size="14.00">b</text>
</g>
<!-- q3 -->
<g id="node2" class="node">
<title>q3</title>
<ellipse fill="lightblue" stroke="black" cx="527.05" cy="-64.36" rx="38.36" ry="38.36"/>
<ellipse fill="none" stroke="black" cx="527.05" cy="-64.36" rx="42.36" ry="42.36"/>
<text text-anchor="middle" x="527.05" y="-68.31" font-family="Times,serif" font-size="14.00">q3</text>
<text text-anchor="middle" x="527.05" y="-51.06" font-family="Times,serif" font-size="14.00">TEST</text>
</g>
<!-- q4&#45;&gt;q3 -->
<g id="edge1" class="edge">
<title>q4&#45;&gt;q3</title>
<path fill="none" stroke="black" d="M438.04,-91.92C449.94,-88.2 463.14,-84.06 475.63,-80.15"/>
<polygon fill="black" stroke="black" points="476.43,-83.57 484.92,-77.24 474.33,-76.89 476.43,-83.57"/>
<text text-anchor="middle" x="462.19" y="-89.51" font-family="Times,serif" font-size="14.00">a</text>
</g>
<!-- q3&#45;&gt;q4 -->
<g id="edge6" class="edge">
<title>q3&#45;&gt;q4</title>
<path fill="none" stroke="black" d="M484.94,-58.51C475.81,-58.45 466.29,-59.36 457.69,-62.11 451.36,-64.13 445.13,-67.1 439.23,-70.55"/>
<polygon fill="black" stroke="black" points="437.43,-67.55 430.9,-75.9 441.21,-73.44 437.43,-67.55"/>
<text text-anchor="middle" x="462.19" y="-66.06" font-family="Times,serif" font-size="14.00">b</text>
</g>
<!-- q3&#45;&gt;q3 -->
<g id="edge5" class="edge">
<title>q3&#45;&gt;q3</title>
<path fill="none" stroke="black" d="M514.98,-105.27C515.62,-116.32 519.64,-124.72 527.05,-124.72 531.69,-124.72 534.99,-121.44 536.98,-116.28"/>
<polygon fill="black" stroke="black" points="540.36,-117.24 538.84,-106.75 533.49,-115.9 540.36,-117.24"/>
<text text-anchor="middle" x="527.05" y="-128.67" font-family="Times,serif" font-size="14.00">a</text>
</g>
<!-- q2 -->
<g id="node3" class="node">
<title>q2</title>
<ellipse fill="lightblue" stroke="black" cx="267.61" cy="-42.36" rx="38.36" ry="38.36"/>
<ellipse fill="none" stroke="black" cx="267.61" cy="-42.36" rx="42.36" ry="42.36"/>
<text text-anchor="middle" x="267.61" y="-46.31" font-family="Times,serif" font-size="14.00">q2</text>
<text text-anchor="middle" x="267.61" y="-29.06" font-family="Times,serif" font-size="14.00">TEST</text>
</g>
<!-- q2&#45;&gt;q4 -->
<g id="edge8" class="edge">
<title>q2&#45;&gt;q4</title>
<path fill="none" stroke="black" d="M306.24,-60.63C319.62,-67.12 334.87,-74.52 348.96,-81.36"/>
<polygon fill="black" stroke="black" points="347.09,-84.35 357.61,-85.56 350.14,-78.05 347.09,-84.35"/>
<text text-anchor="middle" x="332.47" y="-79.17" font-family="Times,serif" font-size="14.00">b</text>
</g>
<!-- q2&#45;&gt;q3 -->
<g id="edge7" class="edge">
<title>q2&#45;&gt;q3</title>
<path fill="none" stroke="black" d="M310.02,-36.38C344.84,-32.42 395.81,-29.12 439.69,-36.11 451.86,-38.05 464.64,-41.43 476.53,-45.2"/>
<polygon fill="black" stroke="black" points="475.12,-48.42 485.71,-48.26 477.33,-41.78 475.12,-48.42"/>
<text text-anchor="middle" x="397.33" y="-40.06" font-family="Times,serif" font-size="14.00">a</text>
</g>
<!-- q0 -->
<g id="node4" class="node">
<title>q0</title>
<ellipse fill="lightgrey" stroke="black" cx="64.45" cy="-42.36" rx="23.85" ry="23.85"/>
<text text-anchor="middle" x="64.45" y="-37.69" font-family="Times,serif" font-size="14.00">q0</text>
</g>
<!-- q1 -->
<g id="node5" class="node">
<title>q1</title>
<ellipse fill="lightgrey" stroke="black" cx="156.4" cy="-42.36" rx="23.85" ry="23.85"/>
<text text-anchor="middle" x="156.4" y="-37.69" font-family="Times,serif" font-size="14.00">q1</text>
</g>
<!-- q0&#45;&gt;q1 -->
<g id="edge3" class="edge">
<title>q0&#45;&gt;q1</title>
<path fill="none" stroke="black" d="M88.61,-42.36C98.48,-42.36 110.19,-42.36 121.02,-42.36"/>
<polygon fill="black" stroke="black" points="120.8,-45.86 130.8,-42.36 120.8,-38.86 120.8,-45.86"/>
<text text-anchor="middle" x="110.43" y="-46.31" font-family="Times,serif" font-size="14.00">a</text>
</g>
<!-- q1&#45;&gt;q2 -->
<g id="edge4" class="edge">
<title>q1&#45;&gt;q2</title>
<path fill="none" stroke="black" d="M180.56,-42.36C190.24,-42.36 201.91,-42.36 213.49,-42.36"/>
<polygon fill="black" stroke="black" points="213.45,-45.86 223.45,-42.36 213.45,-38.86 213.45,-45.86"/>
<text text-anchor="middle" x="202.75" y="-46.31" font-family="Times,serif" font-size="14.00">b</text>
</g>
<!-- start -->
<g id="node6" class="node">
<title>start</title>
<ellipse fill="lightgrey" stroke="black" cx="1.8" cy="-42.36" rx="1.8" ry="1.8"/>
</g>
<!-- start&#45;&gt;q0 -->
<g id="edge9" class="edge">
<title>start&#45;&gt;q0</title>
<path fill="none" stroke="black" d="M3.85,-42.36C7.13,-42.36 17.62,-42.36 28.91,-42.36"/>
<polygon fill="black" stroke="black" points="28.71,-45.86 38.71,-42.36 28.71,-38.86 28.71,-45.86"/>
</g>
</g>
</svg>
