<?xml version="1.0" encoding="UTF-8" standalone="no"?>
<!DOCTYPE svg PUBLIC "-//W3C//DTD SVG 1.1//EN"
 "http://www.w3.org/Graphics/SVG/1.1/DTD/svg11.dtd">
<!-- Generated by graphviz version 12.2.1 (0)
 -->
<!-- Title: DFA Pages: 1 -->
<svg width="295pt" height="360pt"
 viewBox="0.00 0.00 295.33 360.00" xmlns="http://www.w3.org/2000/svg" xmlns:xlink="http://www.w3.org/1999/xlink">
<g id="graph0" class="graph" transform="scale(0.353663 0.353663) rotate(0) translate(4 1013.92)">
<title>DFA</title>
<polygon fill="white" stroke="none" points="-4,4 -4,-1013.92 831.06,-1013.92 831.06,4 -4,4"/>
<!-- q7 -->
<g id="node1" class="node">
<title>q7</title>
<ellipse fill="lightblue" stroke="black" cx="332.43" cy="-765.8" rx="47.38" ry="47.38"/>
<ellipse fill="none" stroke="black" cx="332.43" cy="-765.8" rx="51.38" ry="51.38"/>
<text text-anchor="middle" x="332.43" y="-769.75" font-family="Times,serif" font-size="14.00">q7</text>
<text text-anchor="middle" x="332.43" y="-752.5" font-family="Times,serif" font-size="14.00">RULE1</text>
</g>
<!-- q9 -->
<g id="node2" class="node">
<title>q9</title>
<ellipse fill="lightblue" stroke="black" cx="332.43" cy="-616.8" rx="47.38" ry="47.38"/>
<ellipse fill="none" stroke="black" cx="332.43" cy="-616.8" rx="51.38" ry="51.38"/>
<text text-anchor="middle" x="332.43" y="-620.75" font-family="Times,serif" font-size="14.00">q9</text>
<text text-anchor="middle" x="332.43" y="-603.5" font-family="Times,serif" font-size="14.00">RULE1</text>
</g>
<!-- q12 -->
<g id="node3" class="node">
<title>q12</title>
<ellipse fill="lightblue" stroke="black" cx="332.43" cy="-143.8" rx="47.38" ry="47.38"/>
<ellipse fill="none" stroke="black" cx="332.43" cy="-143.8" rx="51.38" ry="51.38"/>
<text text-anchor="middle" x="332.43" y="-147.75" font-family="Times,serif" font-size="14.00">q12</text>
<text text-anchor="middle" x="332.43" y="-130.5" font-family="Times,serif" font-size="14.00">RULE2</text>
</g>
<!-- q12&#45;&gt;q12 -->
<g id="edge7" class="edge">
<title>q12&#45;&gt;q12</title>
<path fill="none" stroke="black" d="M318.92,-193.7C320.13,-204.95 324.64,-213.18 332.43,-213.18 337.3,-213.18 340.88,-209.97 343.19,-204.81"/>
<polygon fill="black" stroke="black" points="346.57,-205.71 345.58,-195.16 339.77,-204.03 346.57,-205.71"/>
<text text-anchor="middle" x="332.43" y="-217.13" font-family="Times,serif" font-size="14.00">a</text>
</g>
<!-- q10 -->
<g id="node7" class="node">
<title>q10</title>
<ellipse fill="lightblue" stroke="black" cx="480.18" cy="-230.8" rx="47.38" ry="47.38"/>
<ellipse fill="none" stroke="black" cx="480.18" cy="-230.8" rx="51.38" ry="51.38"/>
<text text-anchor="middle" x="480.18" y="-234.75" font-family="Times,serif" font-size="14.00">q10</text>
<text text-anchor="middle" x="480.18" y="-217.5" font-family="Times,serif" font-size="14.00">RULE2</text>
</g>
<!-- q12&#45;&gt;q10 -->
<g id="edge5" class="edge">
<title>q12&#45;&gt;q10</title>
<path fill="none" stroke="black" d="M378.9,-166.68C389.49,-172.31 400.65,-178.47 410.81,-184.55 416.48,-187.95 422.32,-191.63 428.1,-195.37"/>
<polygon fill="black" stroke="black" points="426.17,-198.29 436.44,-200.86 430.01,-192.44 426.17,-198.29"/>
<text text-anchor="middle" x="406.31" y="-188.5" font-family="Times,serif" font-size="14.00">0</text>
</g>
<!-- q13 -->
<g id="node8" class="node">
<title>q13</title>
<ellipse fill="lightblue" stroke="black" cx="775.69" cy="-178.8" rx="47.38" ry="47.38"/>
<ellipse fill="none" stroke="black" cx="775.69" cy="-178.8" rx="51.38" ry="51.38"/>
<text text-anchor="middle" x="775.69" y="-182.75" font-family="Times,serif" font-size="14.00">q13</text>
<text text-anchor="middle" x="775.69" y="-165.5" font-family="Times,serif" font-size="14.00">RULE2</text>
</g>
<!-- q12&#45;&gt;q13 -->
<g id="edge8" class="edge">
<title>q12&#45;&gt;q13</title>
<path fill="none" stroke="black" d="M351.29,-95.71C362.34,-72.52 378.87,-46.42 401.81,-30.8 460.13,8.92 488.24,0.41 558.56,-5.55 624.94,-11.19 653.42,9.7 706.31,-30.8 733.95,-51.97 750.81,-86.97 760.87,-117.61"/>
<polygon fill="black" stroke="black" points="757.42,-118.27 763.71,-126.79 764.1,-116.21 757.42,-118.27"/>
<text text-anchor="middle" x="554.06" y="-9.5" font-family="Times,serif" font-size="14.00">b</text>
</g>
<!-- q11 -->
<g id="node9" class="node">
<title>q11</title>
<ellipse fill="lightblue" stroke="black" cx="627.93" cy="-138.8" rx="47.38" ry="47.38"/>
<ellipse fill="none" stroke="black" cx="627.93" cy="-138.8" rx="51.38" ry="51.38"/>
<text text-anchor="middle" x="627.93" y="-142.75" font-family="Times,serif" font-size="14.00">q11</text>
<text text-anchor="middle" x="627.93" y="-125.5" font-family="Times,serif" font-size="14.00">RULE2</text>
</g>
<!-- q12&#45;&gt;q11 -->
<g id="edge6" class="edge">
<title>q12&#45;&gt;q11</title>
<path fill="none" stroke="black" d="M378.87,-120.88C394.31,-114.24 411.94,-107.89 428.81,-104.55 473.61,-95.7 486.57,-96.72 531.56,-104.55 544.16,-106.75 557.3,-110.46 569.65,-114.65"/>
<polygon fill="black" stroke="black" points="568.24,-117.86 578.84,-117.92 570.59,-111.27 568.24,-117.86"/>
<text text-anchor="middle" x="480.18" y="-108.5" font-family="Times,serif" font-size="14.00">1</text>
</g>
<!-- q6 -->
<g id="node4" class="node">
<title>q6</title>
<ellipse fill="lightblue" stroke="black" cx="332.43" cy="-924.8" rx="47.38" ry="47.38"/>
<ellipse fill="none" stroke="black" cx="332.43" cy="-924.8" rx="51.38" ry="51.38"/>
<text text-anchor="middle" x="332.43" y="-928.75" font-family="Times,serif" font-size="14.00">q6</text>
<text text-anchor="middle" x="332.43" y="-911.5" font-family="Times,serif" font-size="14.00">RULE1</text>
</g>
<!-- q8 -->
<g id="node5" class="node">
<title>q8</title>
<ellipse fill="lightblue" stroke="black" cx="332.43" cy="-479.8" rx="47.38" ry="47.38"/>
<ellipse fill="none" stroke="black" cx="332.43" cy="-479.8" rx="51.38" ry="51.38"/>
<text text-anchor="middle" x="332.43" y="-483.75" font-family="Times,serif" font-size="14.00">q8</text>
<text text-anchor="middle" x="332.43" y="-466.5" font-family="Times,serif" font-size="14.00">RULE1</text>
</g>
<!-- q4 -->
<g id="node6" class="node">
<title>q4</title>
<ellipse fill="lightblue" stroke="black" cx="184.68" cy="-345.8" rx="47.38" ry="47.38"/>
<ellipse fill="none" stroke="black" cx="184.68" cy="-345.8" rx="51.38" ry="51.38"/>
<text text-anchor="middle" x="184.68" y="-349.75" font-family="Times,serif" font-size="14.00">q4</text>
<text text-anchor="middle" x="184.68" y="-332.5" font-family="Times,serif" font-size="14.00">RULE2</text>
</g>
<!-- q4&#45;&gt;q12 -->
<g id="edge23" class="edge">
<title>q4&#45;&gt;q12</title>
<path fill="none" stroke="black" d="M215.52,-304.44C238.51,-272.58 270.41,-228.38 294.92,-194.41"/>
<polygon fill="black" stroke="black" points="297.72,-196.5 300.74,-186.34 292.05,-192.4 297.72,-196.5"/>
<text text-anchor="middle" x="258.55" y="-254.81" font-family="Times,serif" font-size="14.00">a</text>
</g>
<!-- q4&#45;&gt;q10 -->
<g id="edge21" class="edge">
<title>q4&#45;&gt;q10</title>
<path fill="none" stroke="black" d="M232.83,-327.33C284.18,-307.21 366.33,-275.02 421.49,-253.41"/>
<polygon fill="black" stroke="black" points="422.7,-256.69 430.73,-249.79 420.14,-250.18 422.7,-256.69"/>
<text text-anchor="middle" x="332.43" y="-311.11" font-family="Times,serif" font-size="14.00">0</text>
</g>
<!-- q4&#45;&gt;q13 -->
<g id="edge24" class="edge">
<title>q4&#45;&gt;q13</title>
<path fill="none" stroke="black" d="M231.45,-368.13C259.6,-379.85 296.8,-391.8 331.43,-391.8 331.43,-391.8 331.43,-391.8 628.93,-391.8 703.01,-391.8 742.2,-302.97 760.66,-240.04"/>
<polygon fill="black" stroke="black" points="764.02,-241.04 763.36,-230.47 757.28,-239.15 764.02,-241.04"/>
<text text-anchor="middle" x="480.18" y="-395.75" font-family="Times,serif" font-size="14.00">b</text>
</g>
<!-- q4&#45;&gt;q11 -->
<g id="edge22" class="edge">
<title>q4&#45;&gt;q11</title>
<path fill="none" stroke="black" d="M236.34,-349.21C320.57,-353.86 484.76,-358.39 531.56,-326.8 570.62,-300.44 555.23,-272.82 576.56,-230.8 582.74,-218.63 589.62,-205.69 596.27,-193.48"/>
<polygon fill="black" stroke="black" points="599.31,-195.21 601.04,-184.76 593.17,-191.85 599.31,-195.21"/>
<text text-anchor="middle" x="406.31" y="-355.29" font-family="Times,serif" font-size="14.00">1</text>
</g>
<!-- q10&#45;&gt;q12 -->
<g id="edge27" class="edge">
<title>q10&#45;&gt;q12</title>
<path fill="none" stroke="black" d="M430.94,-215.66C421.01,-211.75 410.84,-207.11 401.81,-201.8 394.16,-197.32 386.53,-191.95 379.29,-186.33"/>
<polygon fill="black" stroke="black" points="381.51,-183.62 371.54,-180.06 377.11,-189.07 381.51,-183.62"/>
<text text-anchor="middle" x="406.31" y="-210.06" font-family="Times,serif" font-size="14.00">a</text>
</g>
<!-- q10&#45;&gt;q10 -->
<g id="edge25" class="edge">
<title>q10&#45;&gt;q10</title>
<path fill="none" stroke="black" d="M466.67,-280.7C467.89,-291.95 472.39,-300.18 480.18,-300.18 485.05,-300.18 488.64,-296.97 490.94,-291.81"/>
<polygon fill="black" stroke="black" points="494.32,-292.71 493.33,-282.16 487.53,-291.03 494.32,-292.71"/>
<text text-anchor="middle" x="480.18" y="-304.13" font-family="Times,serif" font-size="14.00">0</text>
</g>
<!-- q10&#45;&gt;q13 -->
<g id="edge28" class="edge">
<title>q10&#45;&gt;q13</title>
<path fill="none" stroke="black" d="M530.98,-239.47C571.63,-244.74 630.18,-248.16 679.31,-234.8 694.82,-230.59 710.38,-223.15 724.3,-215.03"/>
<polygon fill="black" stroke="black" points="726.11,-218.03 732.83,-209.83 722.47,-212.05 726.11,-218.03"/>
<text text-anchor="middle" x="627.93" y="-248.08" font-family="Times,serif" font-size="14.00">b</text>
</g>
<!-- q10&#45;&gt;q11 -->
<g id="edge26" class="edge">
<title>q10&#45;&gt;q11</title>
<path fill="none" stroke="black" d="M529.6,-215.95C539.51,-212.01 549.64,-207.29 558.56,-201.8 567.05,-196.58 575.42,-190.21 583.24,-183.55"/>
<polygon fill="black" stroke="black" points="585.51,-186.21 590.68,-176.96 580.87,-180.98 585.51,-186.21"/>
<text text-anchor="middle" x="554.06" y="-210.19" font-family="Times,serif" font-size="14.00">1</text>
</g>
<!-- q13&#45;&gt;q12 -->
<g id="edge36" class="edge">
<title>q13&#45;&gt;q12</title>
<path fill="none" stroke="black" d="M746.78,-136.06C730.08,-114.53 706.77,-90.56 679.31,-78.8 576.78,-34.91 537.04,-66.86 428.81,-93.8 414.2,-97.44 399.36,-103.73 385.86,-110.65"/>
<polygon fill="black" stroke="black" points="384.32,-107.5 377.16,-115.31 387.63,-113.67 384.32,-107.5"/>
<text text-anchor="middle" x="554.06" y="-64.56" font-family="Times,serif" font-size="14.00">a</text>
</g>
<!-- q13&#45;&gt;q10 -->
<g id="edge34" class="edge">
<title>q13&#45;&gt;q10</title>
<path fill="none" stroke="black" d="M743.34,-218.6C726.54,-236.69 704.18,-256.17 679.31,-265.8 633.51,-283.55 578.25,-271.25 537.74,-256.55"/>
<polygon fill="black" stroke="black" points="539,-253.28 528.41,-253 536.51,-259.82 539,-253.28"/>
<text text-anchor="middle" x="627.93" y="-278.53" font-family="Times,serif" font-size="14.00">0</text>
</g>
<!-- q13&#45;&gt;q13 -->
<g id="edge37" class="edge">
<title>q13&#45;&gt;q13</title>
<path fill="none" stroke="black" d="M762.17,-228.7C763.39,-239.95 767.89,-248.18 775.69,-248.18 780.56,-248.18 784.14,-244.97 786.44,-239.81"/>
<polygon fill="black" stroke="black" points="789.82,-240.71 788.84,-230.16 783.03,-239.03 789.82,-240.71"/>
<text text-anchor="middle" x="775.69" y="-252.13" font-family="Times,serif" font-size="14.00">b</text>
</g>
<!-- q13&#45;&gt;q11 -->
<g id="edge35" class="edge">
<title>q13&#45;&gt;q11</title>
<path fill="none" stroke="black" d="M732.75,-150.34C724.33,-145.91 715.29,-142 706.31,-139.55 701.23,-138.17 695.89,-137.2 690.49,-136.54"/>
<polygon fill="black" stroke="black" points="691.16,-133.08 680.9,-135.72 690.57,-140.06 691.16,-133.08"/>
<text text-anchor="middle" x="701.81" y="-143.5" font-family="Times,serif" font-size="14.00">1</text>
</g>
<!-- q11&#45;&gt;q12 -->
<g id="edge40" class="edge">
<title>q11&#45;&gt;q12</title>
<path fill="none" stroke="black" d="M576.27,-139.67C526.18,-140.52 449.44,-141.83 395.67,-142.74"/>
<polygon fill="black" stroke="black" points="395.67,-139.24 385.73,-142.91 395.79,-146.24 395.67,-139.24"/>
<text text-anchor="middle" x="480.18" y="-146.07" font-family="Times,serif" font-size="14.00">a</text>
</g>
<!-- q11&#45;&gt;q10 -->
<g id="edge38" class="edge">
<title>q11&#45;&gt;q10</title>
<path fill="none" stroke="black" d="M581.73,-161.83C571.02,-167.66 559.75,-174.11 549.56,-180.55 543.28,-184.53 536.83,-188.88 530.51,-193.31"/>
<polygon fill="black" stroke="black" points="528.72,-190.29 522.62,-198.95 532.79,-195.99 528.72,-190.29"/>
<text text-anchor="middle" x="554.06" y="-184.5" font-family="Times,serif" font-size="14.00">0</text>
</g>
<!-- q11&#45;&gt;q13 -->
<g id="edge41" class="edge">
<title>q11&#45;&gt;q13</title>
<path fill="none" stroke="black" d="M677.87,-152.24C689.65,-155.47 702.36,-158.96 714.59,-162.31"/>
<polygon fill="black" stroke="black" points="713.6,-165.67 724.17,-164.94 715.45,-158.92 713.6,-165.67"/>
<text text-anchor="middle" x="701.81" y="-163.95" font-family="Times,serif" font-size="14.00">b</text>
</g>
<!-- q11&#45;&gt;q11 -->
<g id="edge39" class="edge">
<title>q11&#45;&gt;q11</title>
<path fill="none" stroke="black" d="M614.42,-188.7C615.64,-199.95 620.14,-208.18 627.93,-208.18 632.8,-208.18 636.39,-204.97 638.69,-199.81"/>
<polygon fill="black" stroke="black" points="642.07,-200.71 641.08,-190.16 635.28,-199.03 642.07,-200.71"/>
<text text-anchor="middle" x="627.93" y="-212.13" font-family="Times,serif" font-size="14.00">1</text>
</g>
<!-- q1 -->
<g id="node10" class="node">
<title>q1</title>
<ellipse fill="lightgrey" stroke="black" cx="184.68" cy="-640.8" rx="23.85" ry="23.85"/>
<text text-anchor="middle" x="184.68" y="-636.13" font-family="Times,serif" font-size="14.00">q1</text>
</g>
<!-- q1&#45;&gt;q7 -->
<g id="edge2" class="edge">
<title>q1&#45;&gt;q7</title>
<path fill="none" stroke="black" d="M206.87,-650.67C216.88,-656.25 228.31,-664.06 236.05,-673.8 250.49,-691.97 238.97,-705.18 254.05,-722.8 259.95,-729.7 267.24,-735.69 274.96,-740.85"/>
<polygon fill="black" stroke="black" points="272.9,-743.68 283.25,-745.92 276.55,-737.71 272.9,-743.68"/>
<text text-anchor="middle" x="258.55" y="-735.22" font-family="Times,serif" font-size="14.00">1</text>
</g>
<!-- q1&#45;&gt;q9 -->
<g id="edge4" class="edge">
<title>q1&#45;&gt;q9</title>
<path fill="none" stroke="black" d="M205.83,-629.59C215.49,-623.74 226.9,-616.08 236.05,-607.8 245.49,-599.27 242.57,-591.03 254.05,-585.55 262.14,-581.69 270.84,-581.52 279.38,-583.49"/>
<polygon fill="black" stroke="black" points="278.03,-586.73 288.62,-586.53 280.22,-580.08 278.03,-586.73"/>
<text text-anchor="middle" x="258.55" y="-589.5" font-family="Times,serif" font-size="14.00">_</text>
</g>
<!-- q1&#45;&gt;q6 -->
<g id="edge1" class="edge">
<title>q1&#45;&gt;q6</title>
<path fill="none" stroke="black" d="M207.26,-649.46C217.76,-654.85 229.51,-662.85 236.05,-673.8 283.86,-753.85 202.98,-804.8 254.05,-882.8 259.11,-890.53 266.09,-896.95 273.81,-902.25"/>
<polygon fill="black" stroke="black" points="271.85,-905.16 282.21,-907.38 275.5,-899.18 271.85,-905.16"/>
<text text-anchor="middle" x="258.55" y="-895.89" font-family="Times,serif" font-size="14.00">0</text>
</g>
<!-- q1&#45;&gt;q8 -->
<g id="edge3" class="edge">
<title>q1&#45;&gt;q8</title>
<path fill="none" stroke="black" d="M207.34,-631.9C217.73,-626.49 229.35,-618.53 236.05,-607.8 252.93,-580.78 230.15,-486.62 254.05,-465.55 259.77,-460.52 266.67,-458.35 273.96,-458.04"/>
<polygon fill="black" stroke="black" points="273.49,-461.52 283.73,-458.76 274.01,-454.54 273.49,-461.52"/>
<text text-anchor="middle" x="258.55" y="-469.5" font-family="Times,serif" font-size="14.00">2</text>
</g>
<!-- q3 -->
<g id="node11" class="node">
<title>q3</title>
<ellipse fill="lightgrey" stroke="black" cx="184.68" cy="-574.8" rx="23.85" ry="23.85"/>
<text text-anchor="middle" x="184.68" y="-570.13" font-family="Times,serif" font-size="14.00">q3</text>
</g>
<!-- q3&#45;&gt;q7 -->
<g id="edge10" class="edge">
<title>q3&#45;&gt;q7</title>
<path fill="none" stroke="black" d="M207.11,-584.16C217.31,-589.65 228.83,-597.54 236.05,-607.8 255.78,-635.84 237.83,-652.61 254.05,-682.8 262.08,-697.75 273.47,-712.04 285.04,-724.41"/>
<polygon fill="black" stroke="black" points="282.51,-726.83 291.99,-731.57 287.54,-721.96 282.51,-726.83"/>
<text text-anchor="middle" x="258.55" y="-699.87" font-family="Times,serif" font-size="14.00">1</text>
</g>
<!-- q3&#45;&gt;q9 -->
<g id="edge12" class="edge">
<title>q3&#45;&gt;q9</title>
<path fill="none" stroke="black" d="M206.85,-565.54C222.69,-559.95 244.68,-555.06 263.05,-561.55 271.25,-564.45 279.18,-568.79 286.56,-573.8"/>
<polygon fill="black" stroke="black" points="284.24,-576.44 294.38,-579.53 288.38,-570.79 284.24,-576.44"/>
<text text-anchor="middle" x="258.55" y="-565.5" font-family="Times,serif" font-size="14.00">_</text>
</g>
<!-- q3&#45;&gt;q6 -->
<g id="edge9" class="edge">
<title>q3&#45;&gt;q6</title>
<path fill="none" stroke="black" d="M207.26,-583.46C217.76,-588.85 229.51,-596.85 236.05,-607.8 259.96,-647.83 237.9,-773.08 254.05,-816.8 262.23,-838.93 276.22,-860.62 290.07,-878.68"/>
<polygon fill="black" stroke="black" points="286.95,-880.38 295.9,-886.05 292.45,-876.04 286.95,-880.38"/>
<text text-anchor="middle" x="258.55" y="-840.49" font-family="Times,serif" font-size="14.00">0</text>
</g>
<!-- q3&#45;&gt;q8 -->
<g id="edge11" class="edge">
<title>q3&#45;&gt;q8</title>
<path fill="none" stroke="black" d="M188.67,-551.05C194.43,-516.49 210.64,-453.42 254.05,-425.55 266.72,-417.43 280.24,-422.09 292.38,-431.42"/>
<polygon fill="black" stroke="black" points="289.98,-433.97 299.81,-437.93 294.59,-428.7 289.98,-433.97"/>
<text text-anchor="middle" x="258.55" y="-429.5" font-family="Times,serif" font-size="14.00">2</text>
</g>
<!-- q5 -->
<g id="node12" class="node">
<title>q5</title>
<ellipse fill="lightgrey" stroke="black" cx="184.68" cy="-824.8" rx="23.85" ry="23.85"/>
<text text-anchor="middle" x="184.68" y="-820.13" font-family="Times,serif" font-size="14.00">q5</text>
</g>
<!-- q5&#45;&gt;q7 -->
<g id="edge14" class="edge">
<title>q5&#45;&gt;q7</title>
<path fill="none" stroke="black" d="M189.42,-848.57C197.95,-896.54 221.37,-997.53 263.05,-962.8 297.08,-934.46 266.86,-906.75 281.05,-864.8 286.12,-849.81 293.12,-834.25 300.29,-820.04"/>
<polygon fill="black" stroke="black" points="303.33,-821.78 304.82,-811.29 297.11,-818.56 303.33,-821.78"/>
<text text-anchor="middle" x="258.55" y="-971.09" font-family="Times,serif" font-size="14.00">1</text>
</g>
<!-- q5&#45;&gt;q9 -->
<g id="edge16" class="edge">
<title>q5&#45;&gt;q9</title>
<path fill="none" stroke="black" d="M208.42,-819.41C225.96,-814.06 249.45,-804.1 263.05,-786.8 285.85,-757.82 267.83,-740.23 281.05,-705.8 285.68,-693.76 291.75,-681.37 298.06,-669.82"/>
<polygon fill="black" stroke="black" points="301.04,-671.65 302.89,-661.22 294.94,-668.22 301.04,-671.65"/>
<text text-anchor="middle" x="258.55" y="-799.14" font-family="Times,serif" font-size="14.00">_</text>
</g>
<!-- q5&#45;&gt;q6 -->
<g id="edge13" class="edge">
<title>q5&#45;&gt;q6</title>
<path fill="none" stroke="black" d="M187.65,-848.96C192.16,-886.38 206.82,-957.33 254.05,-988.8 268.97,-998.75 284.38,-990.38 297.49,-976.8"/>
<polygon fill="black" stroke="black" points="299.98,-979.28 303.93,-969.45 294.71,-974.67 299.98,-979.28"/>
<text text-anchor="middle" x="258.55" y="-996.62" font-family="Times,serif" font-size="14.00">0</text>
</g>
<!-- q5&#45;&gt;q8 -->
<g id="edge15" class="edge">
<title>q5&#45;&gt;q8</title>
<path fill="none" stroke="black" d="M199.29,-805.77C210.63,-789.11 226.43,-763.85 236.05,-739.8 249.31,-706.67 242.26,-695.24 254.05,-661.55 257.11,-652.83 260.08,-651.56 263.05,-642.8 275.59,-605.82 266.1,-592.88 281.05,-556.8 284.79,-547.8 289.6,-538.71 294.77,-530.09"/>
<polygon fill="black" stroke="black" points="297.58,-532.2 299.92,-521.87 291.65,-528.49 297.58,-532.2"/>
<text text-anchor="middle" x="258.55" y="-665.5" font-family="Times,serif" font-size="14.00">2</text>
</g>
<!-- q2 -->
<g id="node13" class="node">
<title>q2</title>
<ellipse fill="lightgrey" stroke="black" cx="184.68" cy="-706.8" rx="23.85" ry="23.85"/>
<text text-anchor="middle" x="184.68" y="-702.13" font-family="Times,serif" font-size="14.00">q2</text>
</g>
<!-- q2&#45;&gt;q7 -->
<g id="edge18" class="edge">
<title>q2&#45;&gt;q7</title>
<path fill="none" stroke="black" d="M201.1,-724.54C213.81,-737.76 233.11,-754.86 254.05,-762.8 259.05,-764.7 264.37,-766.08 269.78,-767.06"/>
<polygon fill="black" stroke="black" points="269.08,-770.5 279.45,-768.34 270,-763.56 269.08,-770.5"/>
<text text-anchor="middle" x="258.55" y="-769.29" font-family="Times,serif" font-size="14.00">1</text>
</g>
<!-- q2&#45;&gt;q9 -->
<g id="edge20" class="edge">
<title>q2&#45;&gt;q9</title>
<path fill="none" stroke="black" d="M206.85,-696.92C216.86,-691.34 228.29,-683.53 236.05,-673.8 250.34,-655.92 236.02,-639.65 254.05,-625.55 258.73,-621.9 264.07,-619.25 269.72,-617.35"/>
<polygon fill="black" stroke="black" points="270.53,-620.76 279.39,-614.95 268.84,-613.96 270.53,-620.76"/>
<text text-anchor="middle" x="258.55" y="-629.5" font-family="Times,serif" font-size="14.00">_</text>
</g>
<!-- q2&#45;&gt;q6 -->
<g id="edge17" class="edge">
<title>q2&#45;&gt;q6</title>
<path fill="none" stroke="black" d="M199.84,-725.63C211.52,-742.17 227.52,-767.35 236.05,-791.8 245.74,-819.55 232.16,-903.21 254.05,-922.8 258.75,-927.01 264.32,-929.74 270.28,-931.39"/>
<polygon fill="black" stroke="black" points="269.41,-934.79 279.86,-933.04 270.6,-927.89 269.41,-934.79"/>
<text text-anchor="middle" x="258.55" y="-932.39" font-family="Times,serif" font-size="14.00">0</text>
</g>
<!-- q2&#45;&gt;q8 -->
<g id="edge19" class="edge">
<title>q2&#45;&gt;q8</title>
<path fill="none" stroke="black" d="M207.31,-697.89C217.69,-692.47 229.32,-684.51 236.05,-673.8 268.35,-622.48 223.56,-590.97 254.05,-538.55 260.03,-528.28 268.58,-519.21 277.83,-511.46"/>
<polygon fill="black" stroke="black" points="279.92,-514.27 285.67,-505.37 275.62,-508.74 279.92,-514.27"/>
<text text-anchor="middle" x="258.55" y="-542.5" font-family="Times,serif" font-size="14.00">2</text>
</g>
<!-- q0 -->
<g id="node14" class="node">
<title>q0</title>
<ellipse fill="lightgrey" stroke="black" cx="64.45" cy="-640.8" rx="23.85" ry="23.85"/>
<text text-anchor="middle" x="64.45" y="-636.13" font-family="Times,serif" font-size="14.00">q0</text>
</g>
<!-- q0&#45;&gt;q4 -->
<g id="edge32" class="edge">
<title>q0&#45;&gt;q4</title>
<path fill="none" stroke="black" d="M74.34,-618.63C92.42,-573.51 134.02,-469.72 160.37,-403.95"/>
<polygon fill="black" stroke="black" points="163.59,-405.33 164.06,-394.75 157.09,-402.73 163.59,-405.33"/>
<text text-anchor="middle" x="110.8" y="-540.91" font-family="Times,serif" font-size="14.00">$</text>
</g>
<!-- q0&#45;&gt;q1 -->
<g id="edge29" class="edge">
<title>q0&#45;&gt;q1</title>
<path fill="none" stroke="black" d="M88.53,-640.8C105.78,-640.8 129.65,-640.8 149.17,-640.8"/>
<polygon fill="black" stroke="black" points="149.15,-644.3 159.15,-640.8 149.15,-637.3 149.15,-644.3"/>
<text text-anchor="middle" x="110.8" y="-644.75" font-family="Times,serif" font-size="14.00">a</text>
</g>
<!-- q0&#45;&gt;q3 -->
<g id="edge31" class="edge">
<title>q0&#45;&gt;q3</title>
<path fill="none" stroke="black" d="M85.77,-629.46C104.38,-619.07 132.18,-603.56 153.4,-591.71"/>
<polygon fill="black" stroke="black" points="154.88,-594.89 161.9,-586.96 151.46,-588.78 154.88,-594.89"/>
<text text-anchor="middle" x="110.8" y="-621.52" font-family="Times,serif" font-size="14.00">c</text>
</g>
<!-- q0&#45;&gt;q5 -->
<g id="edge33" class="edge">
<title>q0&#45;&gt;q5</title>
<path fill="none" stroke="black" d="M78.1,-660.5C98.94,-692.92 140.57,-757.72 164.87,-795.53"/>
<polygon fill="black" stroke="black" points="161.77,-797.18 170.12,-803.7 167.66,-793.4 161.77,-797.18"/>
<text text-anchor="middle" x="110.8" y="-720.27" font-family="Times,serif" font-size="14.00">_</text>
</g>
<!-- q0&#45;&gt;q2 -->
<g id="edge30" class="edge">
<title>q0&#45;&gt;q2</title>
<path fill="none" stroke="black" d="M85.77,-652.15C104.38,-662.54 132.18,-678.05 153.4,-689.9"/>
<polygon fill="black" stroke="black" points="151.46,-692.83 161.9,-694.65 154.88,-686.72 151.46,-692.83"/>
<text text-anchor="middle" x="110.8" y="-671.84" font-family="Times,serif" font-size="14.00">b</text>
</g>
<!-- start -->
<g id="node15" class="node">
<title>start</title>
<ellipse fill="lightgrey" stroke="black" cx="1.8" cy="-640.8" rx="1.8" ry="1.8"/>
</g>
<!-- start&#45;&gt;q0 -->
<g id="edge42" class="edge">
<title>start&#45;&gt;q0</title>
<path fill="none" stroke="black" d="M3.85,-640.8C7.13,-640.8 17.62,-640.8 28.91,-640.8"/>
<polygon fill="black" stroke="black" points="28.71,-644.3 38.71,-640.8 28.71,-637.3 28.71,-644.3"/>
</g>
</g>
</svg>
