<?xml version="1.0" encoding="UTF-8" standalone="no"?>
<!DOCTYPE svg PUBLIC "-//W3C//DTD SVG 1.1//EN"
 "http://www.w3.org/Graphics/SVG/1.1/DTD/svg11.dtd">
<!-- Generated by graphviz version 12.2.1 (0)
 -->
<!-- Title: NFA Pages: 1 -->
<svg width="452pt" height="2529pt"
 viewBox="0.00 0.00 451.70 2528.52" xmlns="http://www.w3.org/2000/svg" xmlns:xlink="http://www.w3.org/1999/xlink">
<g id="graph0" class="graph" transform="scale(1 1) rotate(0) translate(4 2524.52)">
<title>NFA</title>
<polygon fill="white" stroke="none" points="-4,4 -4,-2524.52 447.7,-2524.52 447.7,4 -4,4"/>
<!-- 12 -->
<g id="node1" class="node">
<title>12</title>
<ellipse fill="lightgrey" stroke="black" cx="388.85" cy="-2496.67" rx="23.85" ry="23.85"/>
<text text-anchor="middle" x="388.85" y="-2491.99" font-family="Times,serif" font-size="14.00">12</text>
</g>
<!-- 8 -->
<g id="node2" class="node">
<title>8</title>
<ellipse fill="lightgrey" stroke="black" cx="359.85" cy="-2395.71" rx="18" ry="18"/>
<text text-anchor="middle" x="359.85" y="-2391.04" font-family="Times,serif" font-size="14.00">8</text>
</g>
<!-- 12&#45;&gt;8 -->
<g id="edge1" class="edge">
<title>12&#45;&gt;8</title>
<path fill="none" stroke="red" d="M382.41,-2473.71C378.12,-2459.04 372.44,-2439.66 367.85,-2424"/>
<polygon fill="red" stroke="red" points="371.33,-2423.45 365.16,-2414.84 364.62,-2425.42 371.33,-2423.45"/>
<text text-anchor="middle" x="379.84" y="-2441.52" font-family="Times,serif" font-size="14.00">ε</text>
</g>
<!-- 10 -->
<g id="node41" class="node">
<title>10</title>
<ellipse fill="lightgrey" stroke="black" cx="419.85" cy="-2395.71" rx="23.85" ry="23.85"/>
<text text-anchor="middle" x="419.85" y="-2391.04" font-family="Times,serif" font-size="14.00">10</text>
</g>
<!-- 12&#45;&gt;10 -->
<g id="edge50" class="edge">
<title>12&#45;&gt;10</title>
<path fill="none" stroke="red" d="M395.73,-2473.71C399.8,-2460.73 405.02,-2444.05 409.57,-2429.54"/>
<polygon fill="red" stroke="red" points="412.78,-2430.99 412.43,-2420.4 406.1,-2428.9 412.78,-2430.99"/>
<text text-anchor="middle" x="409.96" y="-2441.52" font-family="Times,serif" font-size="14.00">ε</text>
</g>
<!-- 4 -->
<g id="node3" class="node">
<title>4</title>
<ellipse fill="lightgrey" stroke="black" cx="319.85" cy="-2300.61" rx="18" ry="18"/>
<text text-anchor="middle" x="319.85" y="-2295.94" font-family="Times,serif" font-size="14.00">4</text>
</g>
<!-- 8&#45;&gt;4 -->
<g id="edge2" class="edge">
<title>8&#45;&gt;4</title>
<path fill="none" stroke="red" d="M353.06,-2378.92C347.09,-2365.01 338.26,-2344.47 331.21,-2328.06"/>
<polygon fill="red" stroke="red" points="334.43,-2326.68 327.27,-2318.88 328,-2329.45 334.43,-2326.68"/>
<text text-anchor="middle" x="346" y="-2340.56" font-family="Times,serif" font-size="14.00">ε</text>
</g>
<!-- 6 -->
<g id="node39" class="node">
<title>6</title>
<ellipse fill="lightgrey" stroke="black" cx="373.85" cy="-2300.61" rx="18" ry="18"/>
<text text-anchor="middle" x="373.85" y="-2295.94" font-family="Times,serif" font-size="14.00">6</text>
</g>
<!-- 8&#45;&gt;6 -->
<g id="edge47" class="edge">
<title>8&#45;&gt;6</title>
<path fill="none" stroke="red" d="M362.42,-2377.64C364.42,-2364.34 367.24,-2345.58 369.58,-2330.02"/>
<polygon fill="red" stroke="red" points="373,-2330.8 371.03,-2320.39 366.08,-2329.76 373,-2330.8"/>
<text text-anchor="middle" x="372.27" y="-2340.56" font-family="Times,serif" font-size="14.00">ε</text>
</g>
<!-- 0 -->
<g id="node4" class="node">
<title>0</title>
<ellipse fill="lightgrey" stroke="black" cx="273.85" cy="-2180.91" rx="18" ry="18"/>
<text text-anchor="middle" x="273.85" y="-2176.24" font-family="Times,serif" font-size="14.00">0</text>
</g>
<!-- 4&#45;&gt;0 -->
<g id="edge3" class="edge">
<title>4&#45;&gt;0</title>
<path fill="none" stroke="red" d="M313.65,-2283.74C306.1,-2264.44 293.25,-2231.56 284.2,-2208.4"/>
<polygon fill="red" stroke="red" points="287.55,-2207.36 280.65,-2199.32 281.03,-2209.91 287.55,-2207.36"/>
<text text-anchor="middle" x="308.72" y="-2236.09" font-family="Times,serif" font-size="14.00">ε</text>
</g>
<!-- 2 -->
<g id="node37" class="node">
<title>2</title>
<ellipse fill="lightgrey" stroke="black" cx="327.85" cy="-2180.91" rx="18" ry="18"/>
<text text-anchor="middle" x="327.85" y="-2176.24" font-family="Times,serif" font-size="14.00">2</text>
</g>
<!-- 4&#45;&gt;2 -->
<g id="edge44" class="edge">
<title>4&#45;&gt;2</title>
<path fill="none" stroke="red" d="M321.03,-2282.25C322.31,-2263.38 324.38,-2232.95 325.9,-2210.54"/>
<polygon fill="red" stroke="red" points="329.38,-2211.08 326.56,-2200.86 322.39,-2210.6 329.38,-2211.08"/>
<text text-anchor="middle" x="329.01" y="-2236.09" font-family="Times,serif" font-size="14.00">ε</text>
</g>
<!-- 1 -->
<g id="node5" class="node">
<title>1</title>
<ellipse fill="lightgrey" stroke="black" cx="273.85" cy="-2072.91" rx="18" ry="18"/>
<text text-anchor="middle" x="273.85" y="-2068.24" font-family="Times,serif" font-size="14.00">1</text>
</g>
<!-- 0&#45;&gt;1 -->
<g id="edge4" class="edge">
<title>0&#45;&gt;1</title>
<path fill="none" stroke="black" d="M273.85,-2162.88C273.85,-2146.68 273.85,-2121.97 273.85,-2102.7"/>
<polygon fill="black" stroke="black" points="277.35,-2102.77 273.85,-2092.77 270.35,-2102.77 277.35,-2102.77"/>
<text text-anchor="middle" x="277.98" y="-2122.24" font-family="Times,serif" font-size="14.00">a</text>
</g>
<!-- 5 -->
<g id="node6" class="node">
<title>5</title>
<ellipse fill="lightgrey" stroke="black" cx="327.85" cy="-1983.66" rx="18" ry="18"/>
<text text-anchor="middle" x="327.85" y="-1978.99" font-family="Times,serif" font-size="14.00">5</text>
</g>
<!-- 1&#45;&gt;5 -->
<g id="edge5" class="edge">
<title>1&#45;&gt;5</title>
<path fill="none" stroke="red" d="M283.01,-2057.11C291.16,-2043.95 303.22,-2024.46 312.79,-2009"/>
<polygon fill="red" stroke="red" points="315.56,-2011.17 317.85,-2000.82 309.61,-2007.49 315.56,-2011.17"/>
<text text-anchor="middle" x="309.44" y="-2023.61" font-family="Times,serif" font-size="14.00">ε</text>
</g>
<!-- 9 -->
<g id="node7" class="node">
<title>9</title>
<ellipse fill="lightgrey" stroke="black" cx="373.85" cy="-1894.41" rx="18" ry="18"/>
<text text-anchor="middle" x="373.85" y="-1889.74" font-family="Times,serif" font-size="14.00">9</text>
</g>
<!-- 5&#45;&gt;9 -->
<g id="edge6" class="edge">
<title>5&#45;&gt;9</title>
<path fill="none" stroke="red" d="M334.69,-1966.89C339.37,-1956.4 345.88,-1942.41 352.35,-1930.41 354.24,-1926.92 356.32,-1923.29 358.42,-1919.75"/>
<polygon fill="red" stroke="red" points="361.25,-1921.83 363.48,-1911.48 355.28,-1918.18 361.25,-1921.83"/>
<text text-anchor="middle" x="356.1" y="-1934.36" font-family="Times,serif" font-size="14.00">ε</text>
</g>
<!-- 13 -->
<g id="node8" class="node">
<title>13</title>
<ellipse fill="lightgrey" stroke="black" cx="401.85" cy="-1799.31" rx="23.85" ry="23.85"/>
<text text-anchor="middle" x="401.85" y="-1794.64" font-family="Times,serif" font-size="14.00">13</text>
</g>
<!-- 9&#45;&gt;13 -->
<g id="edge7" class="edge">
<title>9&#45;&gt;13</title>
<path fill="none" stroke="red" d="M378.86,-1876.77C382.49,-1864.68 387.53,-1847.93 391.96,-1833.19"/>
<polygon fill="red" stroke="red" points="395.24,-1834.45 394.77,-1823.87 388.54,-1832.43 395.24,-1834.45"/>
<text text-anchor="middle" x="393.28" y="-1845.11" font-family="Times,serif" font-size="14.00">ε</text>
</g>
<!-- 40 -->
<g id="node9" class="node">
<title>40</title>
<ellipse fill="lightgrey" stroke="black" cx="401.85" cy="-1698.36" rx="23.85" ry="23.85"/>
<text text-anchor="middle" x="401.85" y="-1693.69" font-family="Times,serif" font-size="14.00">40</text>
</g>
<!-- 13&#45;&gt;40 -->
<g id="edge8" class="edge">
<title>13&#45;&gt;40</title>
<path fill="none" stroke="red" d="M401.85,-1775.11C401.85,-1762.83 401.85,-1747.51 401.85,-1733.86"/>
<polygon fill="red" stroke="red" points="405.35,-1733.93 401.85,-1723.93 398.35,-1733.93 405.35,-1733.93"/>
<text text-anchor="middle" x="405.6" y="-1744.16" font-family="Times,serif" font-size="14.00">ε</text>
</g>
<!-- 38 -->
<g id="node10" class="node">
<title>38</title>
<ellipse fill="lightgrey" stroke="black" cx="362.85" cy="-1597.41" rx="23.85" ry="23.85"/>
<text text-anchor="middle" x="362.85" y="-1592.74" font-family="Times,serif" font-size="14.00">38</text>
</g>
<!-- 40&#45;&gt;38 -->
<g id="edge9" class="edge">
<title>40&#45;&gt;38</title>
<path fill="none" stroke="red" d="M393.39,-1675.89C388.16,-1662.63 381.35,-1645.36 375.49,-1630.49"/>
<polygon fill="red" stroke="red" points="378.91,-1629.61 371.99,-1621.59 372.4,-1632.18 378.91,-1629.61"/>
<text text-anchor="middle" x="388.44" y="-1643.21" font-family="Times,serif" font-size="14.00">ε</text>
</g>
<!-- 41 -->
<g id="node24" class="node">
<title>41</title>
<ellipse fill="lightblue" stroke="black" cx="399.85" cy="-27.85" rx="23.85" ry="23.85"/>
<ellipse fill="none" stroke="black" cx="399.85" cy="-27.85" rx="27.85" ry="27.85"/>
<text text-anchor="middle" x="399.85" y="-23.18" font-family="Times,serif" font-size="14.00">41</text>
</g>
<!-- 40&#45;&gt;41 -->
<g id="edge43" class="edge">
<title>40&#45;&gt;41</title>
<path fill="none" stroke="red" d="M410.24,-1675.72C417.17,-1655.91 425.85,-1625.63 425.85,-1598.41 425.85,-1598.41 425.85,-1598.41 425.85,-131.8 425.85,-109.15 419.86,-84.52 413.63,-65.04"/>
<polygon fill="red" stroke="red" points="416.97,-64 410.46,-55.64 410.34,-66.24 416.97,-64"/>
<text text-anchor="middle" x="429.6" y="-799.53" font-family="Times,serif" font-size="14.00">ε</text>
</g>
<!-- 34 -->
<g id="node11" class="node">
<title>34</title>
<ellipse fill="lightgrey" stroke="black" cx="269.85" cy="-1496.46" rx="23.85" ry="23.85"/>
<text text-anchor="middle" x="269.85" y="-1491.79" font-family="Times,serif" font-size="14.00">34</text>
</g>
<!-- 38&#45;&gt;34 -->
<g id="edge10" class="edge">
<title>38&#45;&gt;34</title>
<path fill="none" stroke="red" d="M347.07,-1579.63C332.47,-1564.08 310.54,-1540.75 293.78,-1522.92"/>
<polygon fill="red" stroke="red" points="296.45,-1520.65 287.05,-1515.77 291.35,-1525.45 296.45,-1520.65"/>
<text text-anchor="middle" x="325.67" y="-1542.26" font-family="Times,serif" font-size="14.00">ε</text>
</g>
<!-- 36 -->
<g id="node35" class="node">
<title>36</title>
<ellipse fill="lightgrey" stroke="black" cx="335.85" cy="-1496.46" rx="23.85" ry="23.85"/>
<text text-anchor="middle" x="335.85" y="-1491.79" font-family="Times,serif" font-size="14.00">36</text>
</g>
<!-- 38&#45;&gt;36 -->
<g id="edge40" class="edge">
<title>38&#45;&gt;36</title>
<path fill="none" stroke="red" d="M356.72,-1573.96C353.24,-1561.18 348.8,-1544.93 344.92,-1530.7"/>
<polygon fill="red" stroke="red" points="348.36,-1530.01 342.35,-1521.29 341.61,-1531.86 348.36,-1530.01"/>
<text text-anchor="middle" x="354.72" y="-1542.26" font-family="Times,serif" font-size="14.00">ε</text>
</g>
<!-- 30 -->
<g id="node12" class="node">
<title>30</title>
<ellipse fill="lightgrey" stroke="black" cx="230.85" cy="-1395.51" rx="23.85" ry="23.85"/>
<text text-anchor="middle" x="230.85" y="-1390.84" font-family="Times,serif" font-size="14.00">30</text>
</g>
<!-- 34&#45;&gt;30 -->
<g id="edge11" class="edge">
<title>34&#45;&gt;30</title>
<path fill="none" stroke="red" d="M261.39,-1473.99C256.16,-1460.73 249.35,-1443.46 243.49,-1428.59"/>
<polygon fill="red" stroke="red" points="246.91,-1427.71 239.99,-1419.69 240.4,-1430.28 246.91,-1427.71"/>
<text text-anchor="middle" x="256.44" y="-1441.31" font-family="Times,serif" font-size="14.00">ε</text>
</g>
<!-- 32 -->
<g id="node33" class="node">
<title>32</title>
<ellipse fill="lightgrey" stroke="black" cx="296.85" cy="-1395.51" rx="23.85" ry="23.85"/>
<text text-anchor="middle" x="296.85" y="-1390.84" font-family="Times,serif" font-size="14.00">32</text>
</g>
<!-- 34&#45;&gt;32 -->
<g id="edge37" class="edge">
<title>34&#45;&gt;32</title>
<path fill="none" stroke="red" d="M275.98,-1473.01C279.46,-1460.23 283.9,-1443.98 287.78,-1429.75"/>
<polygon fill="red" stroke="red" points="291.09,-1430.9 290.35,-1420.34 284.34,-1429.06 291.09,-1430.9"/>
<text text-anchor="middle" x="288.72" y="-1441.31" font-family="Times,serif" font-size="14.00">ε</text>
</g>
<!-- 26 -->
<g id="node13" class="node">
<title>26</title>
<ellipse fill="lightgrey" stroke="black" cx="179.85" cy="-1264.11" rx="23.85" ry="23.85"/>
<text text-anchor="middle" x="179.85" y="-1259.43" font-family="Times,serif" font-size="14.00">26</text>
</g>
<!-- 30&#45;&gt;26 -->
<g id="edge12" class="edge">
<title>30&#45;&gt;26</title>
<path fill="none" stroke="red" d="M222.31,-1372.85C214.19,-1352.23 201.85,-1320.93 192.57,-1297.38"/>
<polygon fill="red" stroke="red" points="195.89,-1296.27 188.97,-1288.25 189.38,-1298.83 195.89,-1296.27"/>
<text text-anchor="middle" x="218.1" y="-1325.14" font-family="Times,serif" font-size="14.00">ε</text>
</g>
<!-- 28 -->
<g id="node31" class="node">
<title>28</title>
<ellipse fill="lightgrey" stroke="black" cx="245.85" cy="-1264.11" rx="23.85" ry="23.85"/>
<text text-anchor="middle" x="245.85" y="-1259.43" font-family="Times,serif" font-size="14.00">28</text>
</g>
<!-- 30&#45;&gt;28 -->
<g id="edge34" class="edge">
<title>30&#45;&gt;28</title>
<path fill="none" stroke="red" d="M233.53,-1371.38C235.86,-1351.32 239.25,-1322.02 241.89,-1299.26"/>
<polygon fill="red" stroke="red" points="245.34,-1299.88 243.02,-1289.55 238.39,-1299.08 245.34,-1299.88"/>
<text text-anchor="middle" x="244.75" y="-1325.14" font-family="Times,serif" font-size="14.00">ε</text>
</g>
<!-- 22 -->
<g id="node14" class="node">
<title>22</title>
<ellipse fill="lightgrey" stroke="black" cx="127.85" cy="-1132.71" rx="23.85" ry="23.85"/>
<text text-anchor="middle" x="127.85" y="-1128.03" font-family="Times,serif" font-size="14.00">22</text>
</g>
<!-- 26&#45;&gt;22 -->
<g id="edge13" class="edge">
<title>26&#45;&gt;22</title>
<path fill="none" stroke="red" d="M171.15,-1241.45C162.86,-1220.83 150.28,-1189.53 140.82,-1165.98"/>
<polygon fill="red" stroke="red" points="144.12,-1164.82 137.15,-1156.84 137.63,-1167.43 144.12,-1164.82"/>
<text text-anchor="middle" x="166.78" y="-1193.73" font-family="Times,serif" font-size="14.00">ε</text>
</g>
<!-- 24 -->
<g id="node29" class="node">
<title>24</title>
<ellipse fill="lightgrey" stroke="black" cx="193.85" cy="-1132.71" rx="23.85" ry="23.85"/>
<text text-anchor="middle" x="193.85" y="-1128.03" font-family="Times,serif" font-size="14.00">24</text>
</g>
<!-- 26&#45;&gt;24 -->
<g id="edge31" class="edge">
<title>26&#45;&gt;24</title>
<path fill="none" stroke="red" d="M182.35,-1239.98C184.52,-1219.92 187.69,-1190.62 190.16,-1167.86"/>
<polygon fill="red" stroke="red" points="193.61,-1168.47 191.21,-1158.15 186.65,-1167.71 193.61,-1168.47"/>
<text text-anchor="middle" x="193.07" y="-1193.73" font-family="Times,serif" font-size="14.00">ε</text>
</g>
<!-- 18 -->
<g id="node15" class="node">
<title>18</title>
<ellipse fill="lightgrey" stroke="black" cx="75.85" cy="-1001.31" rx="23.85" ry="23.85"/>
<text text-anchor="middle" x="75.85" y="-996.63" font-family="Times,serif" font-size="14.00">18</text>
</g>
<!-- 22&#45;&gt;18 -->
<g id="edge14" class="edge">
<title>22&#45;&gt;18</title>
<path fill="none" stroke="red" d="M119.15,-1110.05C110.86,-1089.43 98.28,-1058.13 88.82,-1034.57"/>
<polygon fill="red" stroke="red" points="92.12,-1033.41 85.15,-1025.44 85.63,-1036.03 92.12,-1033.41"/>
<text text-anchor="middle" x="114.78" y="-1062.33" font-family="Times,serif" font-size="14.00">ε</text>
</g>
<!-- 20 -->
<g id="node27" class="node">
<title>20</title>
<ellipse fill="lightgrey" stroke="black" cx="141.85" cy="-1001.31" rx="23.85" ry="23.85"/>
<text text-anchor="middle" x="141.85" y="-996.63" font-family="Times,serif" font-size="14.00">20</text>
</g>
<!-- 22&#45;&gt;20 -->
<g id="edge28" class="edge">
<title>22&#45;&gt;20</title>
<path fill="none" stroke="red" d="M130.35,-1108.57C132.52,-1088.52 135.69,-1059.22 138.16,-1036.46"/>
<polygon fill="red" stroke="red" points="141.61,-1037.06 139.21,-1026.75 134.65,-1036.31 141.61,-1037.06"/>
<text text-anchor="middle" x="141.07" y="-1062.33" font-family="Times,serif" font-size="14.00">ε</text>
</g>
<!-- 14 -->
<g id="node16" class="node">
<title>14</title>
<ellipse fill="lightgrey" stroke="black" cx="23.85" cy="-869.91" rx="23.85" ry="23.85"/>
<text text-anchor="middle" x="23.85" y="-865.23" font-family="Times,serif" font-size="14.00">14</text>
</g>
<!-- 18&#45;&gt;14 -->
<g id="edge15" class="edge">
<title>18&#45;&gt;14</title>
<path fill="none" stroke="red" d="M67.15,-978.65C58.86,-958.03 46.28,-926.73 36.82,-903.17"/>
<polygon fill="red" stroke="red" points="40.12,-902.01 33.15,-894.04 33.63,-904.62 40.12,-902.01"/>
<text text-anchor="middle" x="62.78" y="-930.93" font-family="Times,serif" font-size="14.00">ε</text>
</g>
<!-- 16 -->
<g id="node25" class="node">
<title>16</title>
<ellipse fill="lightgrey" stroke="black" cx="89.85" cy="-869.91" rx="23.85" ry="23.85"/>
<text text-anchor="middle" x="89.85" y="-865.23" font-family="Times,serif" font-size="14.00">16</text>
</g>
<!-- 18&#45;&gt;16 -->
<g id="edge25" class="edge">
<title>18&#45;&gt;16</title>
<path fill="none" stroke="red" d="M78.35,-977.17C80.52,-957.12 83.69,-927.82 86.16,-905.06"/>
<polygon fill="red" stroke="red" points="89.61,-905.66 87.21,-895.34 82.65,-904.91 89.61,-905.66"/>
<text text-anchor="middle" x="89.07" y="-930.93" font-family="Times,serif" font-size="14.00">ε</text>
</g>
<!-- 15 -->
<g id="node17" class="node">
<title>15</title>
<ellipse fill="lightgrey" stroke="black" cx="23.85" cy="-738.5" rx="23.85" ry="23.85"/>
<text text-anchor="middle" x="23.85" y="-733.83" font-family="Times,serif" font-size="14.00">15</text>
</g>
<!-- 14&#45;&gt;15 -->
<g id="edge16" class="edge">
<title>14&#45;&gt;15</title>
<path fill="none" stroke="black" d="M23.85,-845.77C23.85,-825.71 23.85,-796.42 23.85,-773.66"/>
<polygon fill="black" stroke="black" points="27.35,-773.95 23.85,-763.95 20.35,-773.95 27.35,-773.95"/>
<text text-anchor="middle" x="27.98" y="-799.53" font-family="Times,serif" font-size="14.00">a</text>
</g>
<!-- 19 -->
<g id="node18" class="node">
<title>19</title>
<ellipse fill="lightgrey" stroke="black" cx="89.85" cy="-637.55" rx="23.85" ry="23.85"/>
<text text-anchor="middle" x="89.85" y="-632.88" font-family="Times,serif" font-size="14.00">19</text>
</g>
<!-- 15&#45;&gt;19 -->
<g id="edge17" class="edge">
<title>15&#45;&gt;19</title>
<path fill="none" stroke="red" d="M36.89,-717.96C46.47,-703.59 59.65,-683.83 70.46,-667.62"/>
<polygon fill="red" stroke="red" points="73.36,-669.58 76,-659.32 67.54,-665.7 73.36,-669.58"/>
<text text-anchor="middle" x="64.55" y="-683.35" font-family="Times,serif" font-size="14.00">ε</text>
</g>
<!-- 23 -->
<g id="node19" class="node">
<title>23</title>
<ellipse fill="lightgrey" stroke="black" cx="141.85" cy="-536.6" rx="23.85" ry="23.85"/>
<text text-anchor="middle" x="141.85" y="-531.93" font-family="Times,serif" font-size="14.00">23</text>
</g>
<!-- 19&#45;&gt;23 -->
<g id="edge18" class="edge">
<title>19&#45;&gt;23</title>
<path fill="none" stroke="red" d="M100.71,-615.85C106.54,-604.75 113.83,-590.86 120.35,-578.45 122.16,-575.02 124.05,-571.41 125.93,-567.84"/>
<polygon fill="red" stroke="red" points="128.86,-569.78 130.42,-559.3 122.67,-566.52 128.86,-569.78"/>
<text text-anchor="middle" x="124.1" y="-582.4" font-family="Times,serif" font-size="14.00">ε</text>
</g>
<!-- 27 -->
<g id="node20" class="node">
<title>27</title>
<ellipse fill="lightgrey" stroke="black" cx="193.85" cy="-435.65" rx="23.85" ry="23.85"/>
<text text-anchor="middle" x="193.85" y="-430.98" font-family="Times,serif" font-size="14.00">27</text>
</g>
<!-- 23&#45;&gt;27 -->
<g id="edge19" class="edge">
<title>23&#45;&gt;27</title>
<path fill="none" stroke="red" d="M152.71,-514.9C158.54,-503.8 165.83,-489.91 172.35,-477.5 174.16,-474.06 176.05,-470.46 177.93,-466.89"/>
<polygon fill="red" stroke="red" points="180.86,-468.83 182.42,-458.35 174.67,-465.57 180.86,-468.83"/>
<text text-anchor="middle" x="176.1" y="-481.45" font-family="Times,serif" font-size="14.00">ε</text>
</g>
<!-- 31 -->
<g id="node21" class="node">
<title>31</title>
<ellipse fill="lightgrey" stroke="black" cx="245.85" cy="-334.7" rx="23.85" ry="23.85"/>
<text text-anchor="middle" x="245.85" y="-330.03" font-family="Times,serif" font-size="14.00">31</text>
</g>
<!-- 27&#45;&gt;31 -->
<g id="edge20" class="edge">
<title>27&#45;&gt;31</title>
<path fill="none" stroke="red" d="M204.71,-413.94C210.54,-402.85 217.83,-388.96 224.35,-376.55 226.16,-373.11 228.05,-369.51 229.93,-365.94"/>
<polygon fill="red" stroke="red" points="232.86,-367.88 234.42,-357.4 226.67,-364.62 232.86,-367.88"/>
<text text-anchor="middle" x="228.1" y="-380.5" font-family="Times,serif" font-size="14.00">ε</text>
</g>
<!-- 35 -->
<g id="node22" class="node">
<title>35</title>
<ellipse fill="lightgrey" stroke="black" cx="297.85" cy="-233.75" rx="23.85" ry="23.85"/>
<text text-anchor="middle" x="297.85" y="-229.08" font-family="Times,serif" font-size="14.00">35</text>
</g>
<!-- 31&#45;&gt;35 -->
<g id="edge21" class="edge">
<title>31&#45;&gt;35</title>
<path fill="none" stroke="red" d="M256.71,-312.99C262.54,-301.9 269.83,-288.01 276.35,-275.6 278.16,-272.16 280.05,-268.56 281.93,-264.98"/>
<polygon fill="red" stroke="red" points="284.86,-266.93 286.42,-256.45 278.67,-263.67 284.86,-266.93"/>
<text text-anchor="middle" x="280.1" y="-279.55" font-family="Times,serif" font-size="14.00">ε</text>
</g>
<!-- 39 -->
<g id="node23" class="node">
<title>39</title>
<ellipse fill="lightgrey" stroke="black" cx="361.85" cy="-132.8" rx="23.85" ry="23.85"/>
<text text-anchor="middle" x="361.85" y="-128.13" font-family="Times,serif" font-size="14.00">39</text>
</g>
<!-- 35&#45;&gt;39 -->
<g id="edge22" class="edge">
<title>35&#45;&gt;39</title>
<path fill="none" stroke="red" d="M307.59,-211.73C313.15,-200.43 320.55,-186.43 328.35,-174.65 331.62,-169.71 335.38,-164.67 339.16,-159.88"/>
<polygon fill="red" stroke="red" points="341.77,-162.22 345.4,-152.26 336.35,-157.78 341.77,-162.22"/>
<text text-anchor="middle" x="332.1" y="-178.6" font-family="Times,serif" font-size="14.00">ε</text>
</g>
<!-- 39&#45;&gt;38 -->
<g id="edge23" class="edge">
<title>39&#45;&gt;38</title>
<path fill="none" stroke="red" d="M370.94,-155.38C378.44,-175.15 387.85,-205.4 387.85,-232.75 387.85,-1497.46 387.85,-1497.46 387.85,-1497.46 387.85,-1520.17 381.59,-1544.93 375.33,-1564.01"/>
<polygon fill="red" stroke="red" points="372.05,-1562.77 372.09,-1573.37 378.67,-1565.06 372.05,-1562.77"/>
<text text-anchor="middle" x="391.6" y="-799.53" font-family="Times,serif" font-size="14.00">ε</text>
</g>
<!-- 39&#45;&gt;41 -->
<g id="edge24" class="edge">
<title>39&#45;&gt;41</title>
<path fill="none" stroke="red" d="M369.91,-109.97C374.75,-96.86 381.02,-79.86 386.58,-64.81"/>
<polygon fill="red" stroke="red" points="389.76,-66.3 389.94,-55.7 383.19,-63.87 389.76,-66.3"/>
<text text-anchor="middle" x="386.88" y="-77.65" font-family="Times,serif" font-size="14.00">ε</text>
</g>
<!-- 17 -->
<g id="node26" class="node">
<title>17</title>
<ellipse fill="lightgrey" stroke="black" cx="89.85" cy="-738.5" rx="23.85" ry="23.85"/>
<text text-anchor="middle" x="89.85" y="-733.83" font-family="Times,serif" font-size="14.00">17</text>
</g>
<!-- 16&#45;&gt;17 -->
<g id="edge26" class="edge">
<title>16&#45;&gt;17</title>
<path fill="none" stroke="black" d="M89.85,-845.77C89.85,-825.71 89.85,-796.42 89.85,-773.66"/>
<polygon fill="black" stroke="black" points="93.35,-773.95 89.85,-763.95 86.35,-773.95 93.35,-773.95"/>
<text text-anchor="middle" x="94.35" y="-799.53" font-family="Times,serif" font-size="14.00">b</text>
</g>
<!-- 17&#45;&gt;19 -->
<g id="edge27" class="edge">
<title>17&#45;&gt;19</title>
<path fill="none" stroke="red" d="M89.85,-714.31C89.85,-702.02 89.85,-686.7 89.85,-673.05"/>
<polygon fill="red" stroke="red" points="93.35,-673.12 89.85,-663.12 86.35,-673.12 93.35,-673.12"/>
<text text-anchor="middle" x="93.6" y="-683.35" font-family="Times,serif" font-size="14.00">ε</text>
</g>
<!-- 21 -->
<g id="node28" class="node">
<title>21</title>
<ellipse fill="lightgrey" stroke="black" cx="141.85" cy="-804.21" rx="23.85" ry="23.85"/>
<text text-anchor="middle" x="141.85" y="-799.53" font-family="Times,serif" font-size="14.00">21</text>
</g>
<!-- 20&#45;&gt;21 -->
<g id="edge29" class="edge">
<title>20&#45;&gt;21</title>
<path fill="none" stroke="black" d="M141.85,-977.16C141.85,-943.13 141.85,-879.36 141.85,-839.77"/>
<polygon fill="black" stroke="black" points="145.35,-839.84 141.85,-829.84 138.35,-839.84 145.35,-839.84"/>
<text text-anchor="middle" x="145.6" y="-930.93" font-family="Times,serif" font-size="14.00">c</text>
</g>
<!-- 21&#45;&gt;23 -->
<g id="edge30" class="edge">
<title>21&#45;&gt;23</title>
<path fill="none" stroke="red" d="M141.85,-780.1C141.85,-733.3 141.85,-627.1 141.85,-572.09"/>
<polygon fill="red" stroke="red" points="145.35,-572.36 141.85,-562.36 138.35,-572.36 145.35,-572.36"/>
<text text-anchor="middle" x="145.6" y="-683.35" font-family="Times,serif" font-size="14.00">ε</text>
</g>
<!-- 25 -->
<g id="node30" class="node">
<title>25</title>
<ellipse fill="lightgrey" stroke="black" cx="193.85" cy="-935.61" rx="23.85" ry="23.85"/>
<text text-anchor="middle" x="193.85" y="-930.93" font-family="Times,serif" font-size="14.00">25</text>
</g>
<!-- 24&#45;&gt;25 -->
<g id="edge32" class="edge">
<title>24&#45;&gt;25</title>
<path fill="none" stroke="black" d="M193.85,-1108.56C193.85,-1074.53 193.85,-1010.76 193.85,-971.17"/>
<polygon fill="black" stroke="black" points="197.35,-971.24 193.85,-961.24 190.35,-971.24 197.35,-971.24"/>
<text text-anchor="middle" x="198.35" y="-1062.33" font-family="Times,serif" font-size="14.00">0</text>
</g>
<!-- 25&#45;&gt;27 -->
<g id="edge33" class="edge">
<title>25&#45;&gt;27</title>
<path fill="none" stroke="red" d="M193.85,-911.7C193.85,-885.84 193.85,-842.5 193.85,-805.21 193.85,-805.21 193.85,-805.21 193.85,-535.6 193.85,-514.22 193.85,-490.24 193.85,-471.25"/>
<polygon fill="red" stroke="red" points="197.35,-471.36 193.85,-461.36 190.35,-471.36 197.35,-471.36"/>
<text text-anchor="middle" x="197.6" y="-683.35" font-family="Times,serif" font-size="14.00">ε</text>
</g>
<!-- 29 -->
<g id="node32" class="node">
<title>29</title>
<ellipse fill="lightgrey" stroke="black" cx="245.85" cy="-1067.01" rx="23.85" ry="23.85"/>
<text text-anchor="middle" x="245.85" y="-1062.33" font-family="Times,serif" font-size="14.00">29</text>
</g>
<!-- 28&#45;&gt;29 -->
<g id="edge35" class="edge">
<title>28&#45;&gt;29</title>
<path fill="none" stroke="black" d="M245.85,-1239.96C245.85,-1205.93 245.85,-1142.17 245.85,-1102.58"/>
<polygon fill="black" stroke="black" points="249.35,-1102.64 245.85,-1092.64 242.35,-1102.64 249.35,-1102.64"/>
<text text-anchor="middle" x="250.35" y="-1193.73" font-family="Times,serif" font-size="14.00">1</text>
</g>
<!-- 29&#45;&gt;31 -->
<g id="edge36" class="edge">
<title>29&#45;&gt;31</title>
<path fill="none" stroke="red" d="M245.85,-1043.1C245.85,-1017.24 245.85,-973.9 245.85,-936.61 245.85,-936.61 245.85,-936.61 245.85,-434.65 245.85,-413.27 245.85,-389.29 245.85,-370.3"/>
<polygon fill="red" stroke="red" points="249.35,-370.41 245.85,-360.41 242.35,-370.41 249.35,-370.41"/>
<text text-anchor="middle" x="249.6" y="-683.35" font-family="Times,serif" font-size="14.00">ε</text>
</g>
<!-- 33 -->
<g id="node34" class="node">
<title>33</title>
<ellipse fill="lightgrey" stroke="black" cx="297.85" cy="-1198.41" rx="23.85" ry="23.85"/>
<text text-anchor="middle" x="297.85" y="-1193.73" font-family="Times,serif" font-size="14.00">33</text>
</g>
<!-- 32&#45;&gt;33 -->
<g id="edge38" class="edge">
<title>32&#45;&gt;33</title>
<path fill="none" stroke="black" d="M296.97,-1371.36C297.14,-1337.34 297.47,-1273.57 297.67,-1233.98"/>
<polygon fill="black" stroke="black" points="301.17,-1234.06 297.72,-1224.04 294.17,-1234.02 301.17,-1234.06"/>
<text text-anchor="middle" x="301.79" y="-1325.14" font-family="Times,serif" font-size="14.00">2</text>
</g>
<!-- 33&#45;&gt;35 -->
<g id="edge39" class="edge">
<title>33&#45;&gt;35</title>
<path fill="none" stroke="red" d="M297.85,-1174.5C297.85,-1148.64 297.85,-1105.3 297.85,-1068.01 297.85,-1068.01 297.85,-1068.01 297.85,-333.7 297.85,-312.32 297.85,-288.34 297.85,-269.35"/>
<polygon fill="red" stroke="red" points="301.35,-269.46 297.85,-259.46 294.35,-269.46 301.35,-269.46"/>
<text text-anchor="middle" x="301.6" y="-683.35" font-family="Times,serif" font-size="14.00">ε</text>
</g>
<!-- 37 -->
<g id="node36" class="node">
<title>37</title>
<ellipse fill="lightgrey" stroke="black" cx="348.85" cy="-1329.81" rx="23.85" ry="23.85"/>
<text text-anchor="middle" x="348.85" y="-1325.14" font-family="Times,serif" font-size="14.00">37</text>
</g>
<!-- 36&#45;&gt;37 -->
<g id="edge41" class="edge">
<title>36&#45;&gt;37</title>
<path fill="none" stroke="black" d="M337.69,-1472.22C339.89,-1444.27 343.61,-1397.12 346.15,-1365.02"/>
<polygon fill="black" stroke="black" points="349.61,-1365.69 346.91,-1355.44 342.63,-1365.14 349.61,-1365.69"/>
<text text-anchor="middle" x="343.8" y="-1441.31" font-family="Times,serif" font-size="14.00">_</text>
</g>
<!-- 37&#45;&gt;39 -->
<g id="edge42" class="edge">
<title>37&#45;&gt;39</title>
<path fill="none" stroke="red" d="M349.13,-1305.9C349.43,-1280.04 349.85,-1236.7 349.85,-1199.41 349.85,-1199.41 349.85,-1199.41 349.85,-232.75 349.85,-210.97 352.75,-186.68 355.7,-167.62"/>
<polygon fill="red" stroke="red" points="359.12,-168.43 357.27,-157.99 352.21,-167.3 359.12,-168.43"/>
<text text-anchor="middle" x="353.6" y="-683.35" font-family="Times,serif" font-size="14.00">ε</text>
</g>
<!-- 3 -->
<g id="node38" class="node">
<title>3</title>
<ellipse fill="lightgrey" stroke="black" cx="327.85" cy="-2072.91" rx="18" ry="18"/>
<text text-anchor="middle" x="327.85" y="-2068.24" font-family="Times,serif" font-size="14.00">3</text>
</g>
<!-- 2&#45;&gt;3 -->
<g id="edge45" class="edge">
<title>2&#45;&gt;3</title>
<path fill="none" stroke="black" d="M327.85,-2162.88C327.85,-2146.68 327.85,-2121.97 327.85,-2102.7"/>
<polygon fill="black" stroke="black" points="331.35,-2102.77 327.85,-2092.77 324.35,-2102.77 331.35,-2102.77"/>
<text text-anchor="middle" x="332.35" y="-2122.24" font-family="Times,serif" font-size="14.00">b</text>
</g>
<!-- 3&#45;&gt;5 -->
<g id="edge46" class="edge">
<title>3&#45;&gt;5</title>
<path fill="none" stroke="red" d="M327.85,-2054.68C327.85,-2042.85 327.85,-2026.87 327.85,-2013.16"/>
<polygon fill="red" stroke="red" points="331.35,-2013.38 327.85,-2003.38 324.35,-2013.38 331.35,-2013.38"/>
<text text-anchor="middle" x="331.6" y="-2023.61" font-family="Times,serif" font-size="14.00">ε</text>
</g>
<!-- 7 -->
<g id="node40" class="node">
<title>7</title>
<ellipse fill="lightgrey" stroke="black" cx="373.85" cy="-2126.91" rx="18" ry="18"/>
<text text-anchor="middle" x="373.85" y="-2122.24" font-family="Times,serif" font-size="14.00">7</text>
</g>
<!-- 6&#45;&gt;7 -->
<g id="edge48" class="edge">
<title>6&#45;&gt;7</title>
<path fill="none" stroke="black" d="M373.85,-2282.21C373.85,-2252.64 373.85,-2192.34 373.85,-2156.5"/>
<polygon fill="black" stroke="black" points="377.35,-2156.88 373.85,-2146.88 370.35,-2156.88 377.35,-2156.88"/>
<text text-anchor="middle" x="377.6" y="-2236.09" font-family="Times,serif" font-size="14.00">c</text>
</g>
<!-- 7&#45;&gt;9 -->
<g id="edge49" class="edge">
<title>7&#45;&gt;9</title>
<path fill="none" stroke="red" d="M373.85,-2108.59C373.85,-2069.2 373.85,-1972.58 373.85,-1924.12"/>
<polygon fill="red" stroke="red" points="377.35,-1924.14 373.85,-1914.14 370.35,-1924.14 377.35,-1924.14"/>
<text text-anchor="middle" x="377.6" y="-2023.61" font-family="Times,serif" font-size="14.00">ε</text>
</g>
<!-- 11 -->
<g id="node42" class="node">
<title>11</title>
<ellipse fill="lightgrey" stroke="black" cx="419.85" cy="-2240.76" rx="23.85" ry="23.85"/>
<text text-anchor="middle" x="419.85" y="-2236.09" font-family="Times,serif" font-size="14.00">11</text>
</g>
<!-- 10&#45;&gt;11 -->
<g id="edge51" class="edge">
<title>10&#45;&gt;11</title>
<path fill="none" stroke="black" d="M419.85,-2371.48C419.85,-2346.07 419.85,-2305.08 419.85,-2275.99"/>
<polygon fill="black" stroke="black" points="423.35,-2276.23 419.85,-2266.23 416.35,-2276.23 423.35,-2276.23"/>
<text text-anchor="middle" x="423.23" y="-2340.56" font-family="Times,serif" font-size="14.00">_</text>
</g>
<!-- 11&#45;&gt;13 -->
<g id="edge52" class="edge">
<title>11&#45;&gt;13</title>
<path fill="none" stroke="red" d="M419.85,-2216.63C419.85,-2194.01 419.85,-2158.6 419.85,-2127.91 419.85,-2127.91 419.85,-2127.91 419.85,-1893.41 419.85,-1873.39 415.79,-1851.37 411.52,-1833.78"/>
<polygon fill="red" stroke="red" points="414.92,-1832.93 409.03,-1824.12 408.14,-1834.68 414.92,-1832.93"/>
<text text-anchor="middle" x="423.6" y="-2023.61" font-family="Times,serif" font-size="14.00">ε</text>
</g>
</g>
</svg>
