<?xml version="1.0" encoding="UTF-8" standalone="no"?>
<!DOCTYPE svg PUBLIC "-//W3C//DTD SVG 1.1//EN"
 "http://www.w3.org/Graphics/SVG/1.1/DTD/svg11.dtd">
<!-- Generated by graphviz version 12.2.1 (0)
 -->
<!-- Title: NFA Pages: 1 -->
<svg width="509pt" height="1858pt"
 viewBox="0.00 0.00 508.70 1857.91" xmlns="http://www.w3.org/2000/svg" xmlns:xlink="http://www.w3.org/1999/xlink">
<g id="graph0" class="graph" transform="scale(1 1) rotate(0) translate(4 1853.91)">
<title>NFA</title>
<polygon fill="white" stroke="none" points="-4,4 -4,-1853.91 504.7,-1853.91 504.7,4 -4,4"/>
<!-- 46 -->
<g id="node1" class="node">
<title>46</title>
<ellipse fill="lightgrey" stroke="black" cx="236.85" cy="-1826.06" rx="23.85" ry="23.85"/>
<text text-anchor="middle" x="236.85" y="-1821.39" font-family="Times,serif" font-size="14.00">46</text>
</g>
<!-- 12 -->
<g id="node2" class="node">
<title>12</title>
<ellipse fill="lightgrey" stroke="black" cx="204.85" cy="-1725.11" rx="23.85" ry="23.85"/>
<text text-anchor="middle" x="204.85" y="-1720.44" font-family="Times,serif" font-size="14.00">12</text>
</g>
<!-- 46&#45;&gt;12 -->
<g id="edge1" class="edge">
<title>46&#45;&gt;12</title>
<path fill="none" stroke="red" d="M229.75,-1803.1C225.55,-1790.13 220.16,-1773.45 215.46,-1758.93"/>
<polygon fill="red" stroke="red" points="218.92,-1758.23 212.51,-1749.79 212.26,-1760.39 218.92,-1758.23"/>
<text text-anchor="middle" x="226.52" y="-1770.91" font-family="Times,serif" font-size="14.00">ε</text>
</g>
<!-- 28 -->
<g id="node30" class="node">
<title>28</title>
<ellipse fill="lightgrey" stroke="black" cx="300.85" cy="-1725.11" rx="23.85" ry="23.85"/>
<text text-anchor="middle" x="300.85" y="-1720.44" font-family="Times,serif" font-size="14.00">28</text>
</g>
<!-- 46&#45;&gt;28 -->
<g id="edge35" class="edge">
<title>46&#45;&gt;28</title>
<path fill="none" stroke="red" d="M249.49,-1805.51C258.79,-1791.15 271.57,-1771.39 282.05,-1755.18"/>
<polygon fill="red" stroke="red" points="284.92,-1757.19 287.41,-1746.89 279.04,-1753.39 284.92,-1757.19"/>
<text text-anchor="middle" x="276.43" y="-1770.91" font-family="Times,serif" font-size="14.00">ε</text>
</g>
<!-- 8 -->
<g id="node3" class="node">
<title>8</title>
<ellipse fill="lightgrey" stroke="black" cx="144.85" cy="-1624.16" rx="18" ry="18"/>
<text text-anchor="middle" x="144.85" y="-1619.49" font-family="Times,serif" font-size="14.00">8</text>
</g>
<!-- 12&#45;&gt;8 -->
<g id="edge2" class="edge">
<title>12&#45;&gt;8</title>
<path fill="none" stroke="red" d="M192.71,-1704.09C183.18,-1688.38 169.87,-1666.43 159.71,-1649.67"/>
<polygon fill="red" stroke="red" points="162.81,-1648.03 154.63,-1641.3 156.83,-1651.66 162.81,-1648.03"/>
<text text-anchor="middle" x="182.19" y="-1669.96" font-family="Times,serif" font-size="14.00">ε</text>
</g>
<!-- 10 -->
<g id="node28" class="node">
<title>10</title>
<ellipse fill="lightgrey" stroke="black" cx="204.85" cy="-1624.16" rx="23.85" ry="23.85"/>
<text text-anchor="middle" x="204.85" y="-1619.49" font-family="Times,serif" font-size="14.00">10</text>
</g>
<!-- 12&#45;&gt;10 -->
<g id="edge32" class="edge">
<title>12&#45;&gt;10</title>
<path fill="none" stroke="red" d="M204.85,-1700.91C204.85,-1688.63 204.85,-1673.31 204.85,-1659.66"/>
<polygon fill="red" stroke="red" points="208.35,-1659.73 204.85,-1649.73 201.35,-1659.73 208.35,-1659.73"/>
<text text-anchor="middle" x="208.6" y="-1669.96" font-family="Times,serif" font-size="14.00">ε</text>
</g>
<!-- 4 -->
<g id="node4" class="node">
<title>4</title>
<ellipse fill="lightgrey" stroke="black" cx="99.85" cy="-1523.21" rx="18" ry="18"/>
<text text-anchor="middle" x="99.85" y="-1518.54" font-family="Times,serif" font-size="14.00">4</text>
</g>
<!-- 8&#45;&gt;4 -->
<g id="edge3" class="edge">
<title>8&#45;&gt;4</title>
<path fill="none" stroke="red" d="M137.62,-1607.26C130.67,-1591.97 120.03,-1568.58 111.81,-1550.51"/>
<polygon fill="red" stroke="red" points="115.01,-1549.1 107.69,-1541.45 108.64,-1552 115.01,-1549.1"/>
<text text-anchor="middle" x="128.79" y="-1569.01" font-family="Times,serif" font-size="14.00">ε</text>
</g>
<!-- 6 -->
<g id="node26" class="node">
<title>6</title>
<ellipse fill="lightgrey" stroke="black" cx="153.85" cy="-1523.21" rx="18" ry="18"/>
<text text-anchor="middle" x="153.85" y="-1518.54" font-family="Times,serif" font-size="14.00">6</text>
</g>
<!-- 8&#45;&gt;6 -->
<g id="edge29" class="edge">
<title>8&#45;&gt;6</title>
<path fill="none" stroke="red" d="M146.42,-1605.93C147.75,-1591.26 149.69,-1569.9 151.26,-1552.69"/>
<polygon fill="red" stroke="red" points="154.71,-1553.37 152.13,-1543.09 147.74,-1552.73 154.71,-1553.37"/>
<text text-anchor="middle" x="153.64" y="-1569.01" font-family="Times,serif" font-size="14.00">ε</text>
</g>
<!-- 0 -->
<g id="node5" class="node">
<title>0</title>
<ellipse fill="lightgrey" stroke="black" cx="53.85" cy="-1391.81" rx="18" ry="18"/>
<text text-anchor="middle" x="53.85" y="-1387.14" font-family="Times,serif" font-size="14.00">0</text>
</g>
<!-- 4&#45;&gt;0 -->
<g id="edge4" class="edge">
<title>4&#45;&gt;0</title>
<path fill="none" stroke="red" d="M94.02,-1505.82C86.32,-1484.14 72.63,-1445.64 63.4,-1419.67"/>
<polygon fill="red" stroke="red" points="66.78,-1418.74 60.14,-1410.49 60.19,-1421.09 66.78,-1418.74"/>
<text text-anchor="middle" x="88.72" y="-1452.84" font-family="Times,serif" font-size="14.00">ε</text>
</g>
<!-- 2 -->
<g id="node24" class="node">
<title>2</title>
<ellipse fill="lightgrey" stroke="black" cx="107.85" cy="-1391.81" rx="18" ry="18"/>
<text text-anchor="middle" x="107.85" y="-1387.14" font-family="Times,serif" font-size="14.00">2</text>
</g>
<!-- 4&#45;&gt;2 -->
<g id="edge26" class="edge">
<title>4&#45;&gt;2</title>
<path fill="none" stroke="red" d="M100.93,-1504.76C102.25,-1483.32 104.52,-1446.66 106.1,-1421.16"/>
<polygon fill="red" stroke="red" points="109.57,-1421.69 106.7,-1411.5 102.58,-1421.26 109.57,-1421.69"/>
<text text-anchor="middle" x="109.01" y="-1452.84" font-family="Times,serif" font-size="14.00">ε</text>
</g>
<!-- 1 -->
<g id="node6" class="node">
<title>1</title>
<ellipse fill="lightgrey" stroke="black" cx="53.85" cy="-1272.11" rx="18" ry="18"/>
<text text-anchor="middle" x="53.85" y="-1267.43" font-family="Times,serif" font-size="14.00">1</text>
</g>
<!-- 0&#45;&gt;1 -->
<g id="edge5" class="edge">
<title>0&#45;&gt;1</title>
<path fill="none" stroke="black" d="M53.85,-1373.44C53.85,-1354.67 53.85,-1324.43 53.85,-1302.05"/>
<polygon fill="black" stroke="black" points="57.35,-1302.06 53.85,-1292.06 50.35,-1302.06 57.35,-1302.06"/>
<text text-anchor="middle" x="57.98" y="-1327.29" font-family="Times,serif" font-size="14.00">a</text>
</g>
<!-- 5 -->
<g id="node7" class="node">
<title>5</title>
<ellipse fill="lightgrey" stroke="black" cx="107.85" cy="-1171.16" rx="18" ry="18"/>
<text text-anchor="middle" x="107.85" y="-1166.48" font-family="Times,serif" font-size="14.00">5</text>
</g>
<!-- 1&#45;&gt;5 -->
<g id="edge6" class="edge">
<title>1&#45;&gt;5</title>
<path fill="none" stroke="red" d="M62.29,-1255.65C70.77,-1240.11 83.98,-1215.89 94,-1197.53"/>
<polygon fill="red" stroke="red" points="97.03,-1199.29 98.75,-1188.84 90.88,-1195.94 97.03,-1199.29"/>
<text text-anchor="middle" x="87.83" y="-1216.96" font-family="Times,serif" font-size="14.00">ε</text>
</g>
<!-- 9 -->
<g id="node8" class="node">
<title>9</title>
<ellipse fill="lightgrey" stroke="black" cx="148.85" cy="-1039.76" rx="18" ry="18"/>
<text text-anchor="middle" x="148.85" y="-1035.08" font-family="Times,serif" font-size="14.00">9</text>
</g>
<!-- 5&#45;&gt;9 -->
<g id="edge7" class="edge">
<title>5&#45;&gt;9</title>
<path fill="none" stroke="red" d="M111.9,-1153.34C116.35,-1135.4 124,-1106.23 132.35,-1081.61 133.95,-1076.88 135.81,-1071.91 137.69,-1067.13"/>
<polygon fill="red" stroke="red" points="140.91,-1068.49 141.43,-1057.91 134.43,-1065.86 140.91,-1068.49"/>
<text text-anchor="middle" x="136.1" y="-1100.78" font-family="Times,serif" font-size="14.00">ε</text>
</g>
<!-- 13 -->
<g id="node9" class="node">
<title>13</title>
<ellipse fill="lightgrey" stroke="black" cx="176.85" cy="-908.36" rx="23.85" ry="23.85"/>
<text text-anchor="middle" x="176.85" y="-903.68" font-family="Times,serif" font-size="14.00">13</text>
</g>
<!-- 9&#45;&gt;13 -->
<g id="edge8" class="edge">
<title>9&#45;&gt;13</title>
<path fill="none" stroke="red" d="M152.51,-1021.84C156.83,-1001.88 164.12,-968.21 169.59,-942.9"/>
<polygon fill="red" stroke="red" points="172.95,-943.93 171.64,-933.41 166.11,-942.45 172.95,-943.93"/>
<text text-anchor="middle" x="171.54" y="-969.38" font-family="Times,serif" font-size="14.00">ε</text>
</g>
<!-- 26 -->
<g id="node10" class="node">
<title>26</title>
<ellipse fill="lightgrey" stroke="black" cx="176.85" cy="-807.41" rx="23.85" ry="23.85"/>
<text text-anchor="middle" x="176.85" y="-802.73" font-family="Times,serif" font-size="14.00">26</text>
</g>
<!-- 13&#45;&gt;26 -->
<g id="edge9" class="edge">
<title>13&#45;&gt;26</title>
<path fill="none" stroke="red" d="M176.85,-884.16C176.85,-871.87 176.85,-856.55 176.85,-842.9"/>
<polygon fill="red" stroke="red" points="180.35,-842.97 176.85,-832.97 173.35,-842.97 180.35,-842.97"/>
<text text-anchor="middle" x="180.6" y="-853.21" font-family="Times,serif" font-size="14.00">ε</text>
</g>
<!-- 22 -->
<g id="node11" class="node">
<title>22</title>
<ellipse fill="lightgrey" stroke="black" cx="127.85" cy="-706.46" rx="23.85" ry="23.85"/>
<text text-anchor="middle" x="127.85" y="-701.78" font-family="Times,serif" font-size="14.00">22</text>
</g>
<!-- 26&#45;&gt;22 -->
<g id="edge10" class="edge">
<title>26&#45;&gt;22</title>
<path fill="none" stroke="red" d="M166.46,-785.42C159.7,-771.78 150.77,-753.75 143.21,-738.46"/>
<polygon fill="red" stroke="red" points="146.47,-737.17 138.9,-729.77 140.2,-740.28 146.47,-737.17"/>
<text text-anchor="middle" x="159.03" y="-752.26" font-family="Times,serif" font-size="14.00">ε</text>
</g>
<!-- 24 -->
<g id="node22" class="node">
<title>24</title>
<ellipse fill="lightgrey" stroke="black" cx="193.85" cy="-706.46" rx="23.85" ry="23.85"/>
<text text-anchor="middle" x="193.85" y="-701.78" font-family="Times,serif" font-size="14.00">24</text>
</g>
<!-- 26&#45;&gt;24 -->
<g id="edge23" class="edge">
<title>26&#45;&gt;24</title>
<path fill="none" stroke="red" d="M180.79,-783.46C182.94,-770.97 185.63,-755.28 188.02,-741.4"/>
<polygon fill="red" stroke="red" points="191.43,-742.22 189.67,-731.77 184.53,-741.04 191.43,-742.22"/>
<text text-anchor="middle" x="190.12" y="-752.26" font-family="Times,serif" font-size="14.00">ε</text>
</g>
<!-- 18 -->
<g id="node12" class="node">
<title>18</title>
<ellipse fill="lightgrey" stroke="black" cx="75.85" cy="-605.5" rx="23.85" ry="23.85"/>
<text text-anchor="middle" x="75.85" y="-600.83" font-family="Times,serif" font-size="14.00">18</text>
</g>
<!-- 22&#45;&gt;18 -->
<g id="edge11" class="edge">
<title>22&#45;&gt;18</title>
<path fill="none" stroke="red" d="M117.08,-684.95C109.76,-671.02 99.95,-652.36 91.74,-636.73"/>
<polygon fill="red" stroke="red" points="95.07,-635.54 87.32,-628.32 88.87,-638.8 95.07,-635.54"/>
<text text-anchor="middle" x="108.71" y="-651.31" font-family="Times,serif" font-size="14.00">ε</text>
</g>
<!-- 20 -->
<g id="node20" class="node">
<title>20</title>
<ellipse fill="lightgrey" stroke="black" cx="141.85" cy="-605.5" rx="23.85" ry="23.85"/>
<text text-anchor="middle" x="141.85" y="-600.83" font-family="Times,serif" font-size="14.00">20</text>
</g>
<!-- 22&#45;&gt;20 -->
<g id="edge20" class="edge">
<title>22&#45;&gt;20</title>
<path fill="none" stroke="red" d="M131.1,-682.51C132.86,-670.02 135.08,-654.33 137.05,-640.45"/>
<polygon fill="red" stroke="red" points="140.47,-641.22 138.41,-630.83 133.54,-640.24 140.47,-641.22"/>
<text text-anchor="middle" x="139.44" y="-651.31" font-family="Times,serif" font-size="14.00">ε</text>
</g>
<!-- 14 -->
<g id="node13" class="node">
<title>14</title>
<ellipse fill="lightgrey" stroke="black" cx="23.85" cy="-470.1" rx="23.85" ry="23.85"/>
<text text-anchor="middle" x="23.85" y="-465.43" font-family="Times,serif" font-size="14.00">14</text>
</g>
<!-- 18&#45;&gt;14 -->
<g id="edge12" class="edge">
<title>18&#45;&gt;14</title>
<path fill="none" stroke="red" d="M67.38,-582.77C58.99,-561.26 46.06,-528.07 36.46,-503.46"/>
<polygon fill="red" stroke="red" points="39.76,-502.28 32.87,-494.23 33.24,-504.82 39.76,-502.28"/>
<text text-anchor="middle" x="62.78" y="-535.13" font-family="Times,serif" font-size="14.00">ε</text>
</g>
<!-- 16 -->
<g id="node18" class="node">
<title>16</title>
<ellipse fill="lightgrey" stroke="black" cx="89.85" cy="-470.1" rx="23.85" ry="23.85"/>
<text text-anchor="middle" x="89.85" y="-465.43" font-family="Times,serif" font-size="14.00">16</text>
</g>
<!-- 18&#45;&gt;16 -->
<g id="edge17" class="edge">
<title>18&#45;&gt;16</title>
<path fill="none" stroke="red" d="M78.26,-581.57C80.45,-560.67 83.72,-529.5 86.23,-505.59"/>
<polygon fill="red" stroke="red" points="89.71,-506 87.27,-495.69 82.75,-505.27 89.71,-506"/>
<text text-anchor="middle" x="88.67" y="-535.13" font-family="Times,serif" font-size="14.00">ε</text>
</g>
<!-- 15 -->
<g id="node14" class="node">
<title>15</title>
<ellipse fill="lightgrey" stroke="black" cx="23.85" cy="-334.7" rx="23.85" ry="23.85"/>
<text text-anchor="middle" x="23.85" y="-330.03" font-family="Times,serif" font-size="14.00">15</text>
</g>
<!-- 14&#45;&gt;15 -->
<g id="edge13" class="edge">
<title>14&#45;&gt;15</title>
<path fill="none" stroke="black" d="M23.85,-445.87C23.85,-424.92 23.85,-393.85 23.85,-370.04"/>
<polygon fill="black" stroke="black" points="27.35,-370.19 23.85,-360.19 20.35,-370.19 27.35,-370.19"/>
<text text-anchor="middle" x="28.35" y="-395.73" font-family="Times,serif" font-size="14.00">0</text>
</g>
<!-- 19 -->
<g id="node15" class="node">
<title>19</title>
<ellipse fill="lightgrey" stroke="black" cx="89.85" cy="-233.75" rx="23.85" ry="23.85"/>
<text text-anchor="middle" x="89.85" y="-229.08" font-family="Times,serif" font-size="14.00">19</text>
</g>
<!-- 15&#45;&gt;19 -->
<g id="edge14" class="edge">
<title>15&#45;&gt;19</title>
<path fill="none" stroke="red" d="M36.89,-314.15C46.47,-299.79 59.65,-280.03 70.46,-263.82"/>
<polygon fill="red" stroke="red" points="73.36,-265.78 76,-255.52 67.54,-261.9 73.36,-265.78"/>
<text text-anchor="middle" x="64.55" y="-279.55" font-family="Times,serif" font-size="14.00">ε</text>
</g>
<!-- 23 -->
<g id="node16" class="node">
<title>23</title>
<ellipse fill="lightgrey" stroke="black" cx="141.85" cy="-132.8" rx="23.85" ry="23.85"/>
<text text-anchor="middle" x="141.85" y="-128.13" font-family="Times,serif" font-size="14.00">23</text>
</g>
<!-- 19&#45;&gt;23 -->
<g id="edge15" class="edge">
<title>19&#45;&gt;23</title>
<path fill="none" stroke="red" d="M100.71,-212.04C106.54,-200.95 113.83,-187.05 120.35,-174.65 122.16,-171.21 124.05,-167.61 125.93,-164.03"/>
<polygon fill="red" stroke="red" points="128.86,-165.98 130.42,-155.5 122.67,-162.72 128.86,-165.98"/>
<text text-anchor="middle" x="124.1" y="-178.6" font-family="Times,serif" font-size="14.00">ε</text>
</g>
<!-- 27 -->
<g id="node17" class="node">
<title>27</title>
<ellipse fill="lightblue" stroke="black" cx="167.85" cy="-27.85" rx="23.85" ry="23.85"/>
<ellipse fill="none" stroke="black" cx="167.85" cy="-27.85" rx="27.85" ry="27.85"/>
<text text-anchor="middle" x="167.85" y="-23.18" font-family="Times,serif" font-size="14.00">27</text>
</g>
<!-- 23&#45;&gt;27 -->
<g id="edge16" class="edge">
<title>23&#45;&gt;27</title>
<path fill="none" stroke="red" d="M147.56,-109.21C150.74,-96.6 154.79,-80.57 158.43,-66.15"/>
<polygon fill="red" stroke="red" points="161.81,-67.05 160.87,-56.49 155.03,-65.33 161.81,-67.05"/>
<text text-anchor="middle" x="160.16" y="-77.65" font-family="Times,serif" font-size="14.00">ε</text>
</g>
<!-- 17 -->
<g id="node19" class="node">
<title>17</title>
<ellipse fill="lightgrey" stroke="black" cx="89.85" cy="-334.7" rx="23.85" ry="23.85"/>
<text text-anchor="middle" x="89.85" y="-330.03" font-family="Times,serif" font-size="14.00">17</text>
</g>
<!-- 16&#45;&gt;17 -->
<g id="edge18" class="edge">
<title>16&#45;&gt;17</title>
<path fill="none" stroke="black" d="M89.85,-445.87C89.85,-424.92 89.85,-393.85 89.85,-370.04"/>
<polygon fill="black" stroke="black" points="93.35,-370.19 89.85,-360.19 86.35,-370.19 93.35,-370.19"/>
<text text-anchor="middle" x="94.35" y="-395.73" font-family="Times,serif" font-size="14.00">1</text>
</g>
<!-- 17&#45;&gt;19 -->
<g id="edge19" class="edge">
<title>17&#45;&gt;19</title>
<path fill="none" stroke="red" d="M89.85,-310.5C89.85,-298.22 89.85,-282.89 89.85,-269.25"/>
<polygon fill="red" stroke="red" points="93.35,-269.32 89.85,-259.32 86.35,-269.32 93.35,-269.32"/>
<text text-anchor="middle" x="93.6" y="-279.55" font-family="Times,serif" font-size="14.00">ε</text>
</g>
<!-- 21 -->
<g id="node21" class="node">
<title>21</title>
<ellipse fill="lightgrey" stroke="black" cx="141.85" cy="-400.4" rx="23.85" ry="23.85"/>
<text text-anchor="middle" x="141.85" y="-395.73" font-family="Times,serif" font-size="14.00">21</text>
</g>
<!-- 20&#45;&gt;21 -->
<g id="edge21" class="edge">
<title>20&#45;&gt;21</title>
<path fill="none" stroke="black" d="M141.85,-581.21C141.85,-545.64 141.85,-477.59 141.85,-436.17"/>
<polygon fill="black" stroke="black" points="145.35,-436.25 141.85,-426.26 138.35,-436.26 145.35,-436.25"/>
<text text-anchor="middle" x="146.35" y="-535.13" font-family="Times,serif" font-size="14.00">2</text>
</g>
<!-- 21&#45;&gt;23 -->
<g id="edge22" class="edge">
<title>21&#45;&gt;23</title>
<path fill="none" stroke="red" d="M141.85,-376.3C141.85,-329.5 141.85,-223.3 141.85,-168.28"/>
<polygon fill="red" stroke="red" points="145.35,-168.56 141.85,-158.56 138.35,-168.56 145.35,-168.56"/>
<text text-anchor="middle" x="145.6" y="-279.55" font-family="Times,serif" font-size="14.00">ε</text>
</g>
<!-- 25 -->
<g id="node23" class="node">
<title>25</title>
<ellipse fill="lightgrey" stroke="black" cx="193.85" cy="-539.8" rx="23.85" ry="23.85"/>
<text text-anchor="middle" x="193.85" y="-535.13" font-family="Times,serif" font-size="14.00">25</text>
</g>
<!-- 24&#45;&gt;25 -->
<g id="edge24" class="edge">
<title>24&#45;&gt;25</title>
<path fill="none" stroke="black" d="M193.85,-682.21C193.85,-654.39 193.85,-607.53 193.85,-575.43"/>
<polygon fill="black" stroke="black" points="197.35,-575.44 193.85,-565.44 190.35,-575.44 197.35,-575.44"/>
<text text-anchor="middle" x="197.23" y="-651.31" font-family="Times,serif" font-size="14.00">_</text>
</g>
<!-- 25&#45;&gt;27 -->
<g id="edge25" class="edge">
<title>25&#45;&gt;27</title>
<path fill="none" stroke="red" d="M193.85,-515.47C193.85,-488.13 193.85,-441.48 193.85,-401.4 193.85,-401.4 193.85,-401.4 193.85,-131.8 193.85,-109.15 187.86,-84.52 181.63,-65.04"/>
<polygon fill="red" stroke="red" points="184.97,-64 178.46,-55.64 178.34,-66.24 184.97,-64"/>
<text text-anchor="middle" x="197.6" y="-279.55" font-family="Times,serif" font-size="14.00">ε</text>
</g>
<!-- 3 -->
<g id="node25" class="node">
<title>3</title>
<ellipse fill="lightgrey" stroke="black" cx="107.85" cy="-1272.11" rx="18" ry="18"/>
<text text-anchor="middle" x="107.85" y="-1267.43" font-family="Times,serif" font-size="14.00">3</text>
</g>
<!-- 2&#45;&gt;3 -->
<g id="edge27" class="edge">
<title>2&#45;&gt;3</title>
<path fill="none" stroke="black" d="M107.85,-1373.44C107.85,-1354.67 107.85,-1324.43 107.85,-1302.05"/>
<polygon fill="black" stroke="black" points="111.35,-1302.06 107.85,-1292.06 104.35,-1302.06 111.35,-1302.06"/>
<text text-anchor="middle" x="112.35" y="-1327.29" font-family="Times,serif" font-size="14.00">b</text>
</g>
<!-- 3&#45;&gt;5 -->
<g id="edge28" class="edge">
<title>3&#45;&gt;5</title>
<path fill="none" stroke="red" d="M107.85,-1253.87C107.85,-1239.21 107.85,-1217.85 107.85,-1200.64"/>
<polygon fill="red" stroke="red" points="111.35,-1201.04 107.85,-1191.04 104.35,-1201.04 111.35,-1201.04"/>
<text text-anchor="middle" x="111.6" y="-1216.96" font-family="Times,serif" font-size="14.00">ε</text>
</g>
<!-- 7 -->
<g id="node27" class="node">
<title>7</title>
<ellipse fill="lightgrey" stroke="black" cx="153.85" cy="-1331.96" rx="18" ry="18"/>
<text text-anchor="middle" x="153.85" y="-1327.29" font-family="Times,serif" font-size="14.00">7</text>
</g>
<!-- 6&#45;&gt;7 -->
<g id="edge30" class="edge">
<title>6&#45;&gt;7</title>
<path fill="none" stroke="black" d="M153.85,-1504.75C153.85,-1472.07 153.85,-1401.42 153.85,-1361.66"/>
<polygon fill="black" stroke="black" points="157.35,-1361.9 153.85,-1351.9 150.35,-1361.9 157.35,-1361.9"/>
<text text-anchor="middle" x="157.6" y="-1452.84" font-family="Times,serif" font-size="14.00">c</text>
</g>
<!-- 7&#45;&gt;9 -->
<g id="edge31" class="edge">
<title>7&#45;&gt;9</title>
<path fill="none" stroke="red" d="M153.55,-1313.68C152.72,-1265.39 150.37,-1128.7 149.34,-1069.12"/>
<polygon fill="red" stroke="red" points="152.84,-1069.4 149.17,-1059.47 145.85,-1069.52 152.84,-1069.4"/>
<text text-anchor="middle" x="155.84" y="-1216.96" font-family="Times,serif" font-size="14.00">ε</text>
</g>
<!-- 11 -->
<g id="node29" class="node">
<title>11</title>
<ellipse fill="lightgrey" stroke="black" cx="197.85" cy="-1457.51" rx="23.85" ry="23.85"/>
<text text-anchor="middle" x="197.85" y="-1452.84" font-family="Times,serif" font-size="14.00">11</text>
</g>
<!-- 10&#45;&gt;11 -->
<g id="edge33" class="edge">
<title>10&#45;&gt;11</title>
<path fill="none" stroke="black" d="M203.86,-1599.92C202.67,-1571.97 200.67,-1524.82 199.3,-1492.72"/>
<polygon fill="black" stroke="black" points="202.82,-1492.99 198.9,-1483.15 195.83,-1493.29 202.82,-1492.99"/>
<text text-anchor="middle" x="206.45" y="-1569.01" font-family="Times,serif" font-size="14.00">_</text>
</g>
<!-- 11&#45;&gt;13 -->
<g id="edge34" class="edge">
<title>11&#45;&gt;13</title>
<path fill="none" stroke="red" d="M196.95,-1433.29C196.07,-1408.46 194.85,-1367.93 194.85,-1332.96 194.85,-1332.96 194.85,-1332.96 194.85,-1038.76 194.85,-1006.11 189.16,-969.26 184.18,-943.26"/>
<polygon fill="red" stroke="red" points="187.64,-942.74 182.26,-933.62 180.78,-944.11 187.64,-942.74"/>
<text text-anchor="middle" x="198.6" y="-1216.96" font-family="Times,serif" font-size="14.00">ε</text>
</g>
<!-- 29 -->
<g id="node31" class="node">
<title>29</title>
<ellipse fill="lightgrey" stroke="black" cx="377.85" cy="-1624.16" rx="23.85" ry="23.85"/>
<text text-anchor="middle" x="377.85" y="-1619.49" font-family="Times,serif" font-size="14.00">29</text>
</g>
<!-- 28&#45;&gt;29 -->
<g id="edge36" class="edge">
<title>28&#45;&gt;29</title>
<path fill="none" stroke="black" d="M314.97,-1705.96C326.62,-1690.99 343.33,-1669.52 356.59,-1652.48"/>
<polygon fill="black" stroke="black" points="359.25,-1654.77 362.63,-1644.73 353.72,-1650.47 359.25,-1654.77"/>
<text text-anchor="middle" x="348.46" y="-1669.96" font-family="Times,serif" font-size="14.00">$</text>
</g>
<!-- 44 -->
<g id="node32" class="node">
<title>44</title>
<ellipse fill="lightgrey" stroke="black" cx="395.85" cy="-1523.21" rx="23.85" ry="23.85"/>
<text text-anchor="middle" x="395.85" y="-1518.54" font-family="Times,serif" font-size="14.00">44</text>
</g>
<!-- 29&#45;&gt;44 -->
<g id="edge37" class="edge">
<title>29&#45;&gt;44</title>
<path fill="none" stroke="red" d="M382.03,-1600.21C384.3,-1587.72 387.15,-1572.03 389.68,-1558.16"/>
<polygon fill="red" stroke="red" points="393.08,-1558.99 391.43,-1548.53 386.19,-1557.74 393.08,-1558.99"/>
<text text-anchor="middle" x="391.68" y="-1569.01" font-family="Times,serif" font-size="14.00">ε</text>
</g>
<!-- 42 -->
<g id="node33" class="node">
<title>42</title>
<ellipse fill="lightgrey" stroke="black" cx="395.85" cy="-1391.81" rx="23.85" ry="23.85"/>
<text text-anchor="middle" x="395.85" y="-1387.14" font-family="Times,serif" font-size="14.00">42</text>
</g>
<!-- 44&#45;&gt;42 -->
<g id="edge38" class="edge">
<title>44&#45;&gt;42</title>
<path fill="none" stroke="red" d="M395.85,-1499.08C395.85,-1479.02 395.85,-1449.72 395.85,-1426.96"/>
<polygon fill="red" stroke="red" points="399.35,-1427.26 395.85,-1417.26 392.35,-1427.26 399.35,-1427.26"/>
<text text-anchor="middle" x="399.6" y="-1452.84" font-family="Times,serif" font-size="14.00">ε</text>
</g>
<!-- 45 -->
<g id="node41" class="node">
<title>45</title>
<ellipse fill="lightblue" stroke="black" cx="472.85" cy="-470.1" rx="23.85" ry="23.85"/>
<ellipse fill="none" stroke="black" cx="472.85" cy="-470.1" rx="27.85" ry="27.85"/>
<text text-anchor="middle" x="472.85" y="-465.43" font-family="Times,serif" font-size="14.00">45</text>
</g>
<!-- 44&#45;&gt;45 -->
<g id="edge57" class="edge">
<title>44&#45;&gt;45</title>
<path fill="none" stroke="red" d="M414.5,-1508.15C440.86,-1486.52 485.85,-1442.34 485.85,-1392.81 485.85,-1392.81 485.85,-1392.81 485.85,-604.5 485.85,-572.28 482.05,-535.87 478.55,-509.24"/>
<polygon fill="red" stroke="red" points="482.06,-509.05 477.24,-499.61 475.12,-509.99 482.06,-509.05"/>
<text text-anchor="middle" x="489.6" y="-969.38" font-family="Times,serif" font-size="14.00">ε</text>
</g>
<!-- 38 -->
<g id="node34" class="node">
<title>38</title>
<ellipse fill="lightgrey" stroke="black" cx="329.85" cy="-1272.11" rx="23.85" ry="23.85"/>
<text text-anchor="middle" x="329.85" y="-1267.43" font-family="Times,serif" font-size="14.00">38</text>
</g>
<!-- 42&#45;&gt;38 -->
<g id="edge39" class="edge">
<title>42&#45;&gt;38</title>
<path fill="none" stroke="red" d="M384.5,-1370.58C374.12,-1352.05 358.6,-1324.38 346.75,-1303.25"/>
<polygon fill="red" stroke="red" points="349.95,-1301.8 342.01,-1294.79 343.85,-1305.23 349.95,-1301.8"/>
<text text-anchor="middle" x="376.37" y="-1327.29" font-family="Times,serif" font-size="14.00">ε</text>
</g>
<!-- 40 -->
<g id="node46" class="node">
<title>40</title>
<ellipse fill="lightgrey" stroke="black" cx="395.85" cy="-1272.11" rx="23.85" ry="23.85"/>
<text text-anchor="middle" x="395.85" y="-1267.43" font-family="Times,serif" font-size="14.00">40</text>
</g>
<!-- 42&#45;&gt;40 -->
<g id="edge54" class="edge">
<title>42&#45;&gt;40</title>
<path fill="none" stroke="red" d="M395.85,-1367.56C395.85,-1350.47 395.85,-1326.97 395.85,-1307.68"/>
<polygon fill="red" stroke="red" points="399.35,-1307.83 395.85,-1297.83 392.35,-1307.83 399.35,-1307.83"/>
<text text-anchor="middle" x="399.6" y="-1327.29" font-family="Times,serif" font-size="14.00">ε</text>
</g>
<!-- 34 -->
<g id="node35" class="node">
<title>34</title>
<ellipse fill="lightgrey" stroke="black" cx="290.85" cy="-1171.16" rx="23.85" ry="23.85"/>
<text text-anchor="middle" x="290.85" y="-1166.48" font-family="Times,serif" font-size="14.00">34</text>
</g>
<!-- 38&#45;&gt;34 -->
<g id="edge40" class="edge">
<title>38&#45;&gt;34</title>
<path fill="none" stroke="red" d="M321.39,-1249.64C316.16,-1236.37 309.35,-1219.11 303.49,-1204.24"/>
<polygon fill="red" stroke="red" points="306.91,-1203.36 299.99,-1195.34 300.4,-1205.92 306.91,-1203.36"/>
<text text-anchor="middle" x="316.44" y="-1216.96" font-family="Times,serif" font-size="14.00">ε</text>
</g>
<!-- 36 -->
<g id="node44" class="node">
<title>36</title>
<ellipse fill="lightgrey" stroke="black" cx="356.85" cy="-1171.16" rx="23.85" ry="23.85"/>
<text text-anchor="middle" x="356.85" y="-1166.48" font-family="Times,serif" font-size="14.00">36</text>
</g>
<!-- 38&#45;&gt;36 -->
<g id="edge51" class="edge">
<title>38&#45;&gt;36</title>
<path fill="none" stroke="red" d="M335.98,-1248.66C339.46,-1235.88 343.9,-1219.63 347.78,-1205.4"/>
<polygon fill="red" stroke="red" points="351.09,-1206.55 350.35,-1195.98 344.34,-1204.71 351.09,-1206.55"/>
<text text-anchor="middle" x="348.72" y="-1216.96" font-family="Times,serif" font-size="14.00">ε</text>
</g>
<!-- 30 -->
<g id="node36" class="node">
<title>30</title>
<ellipse fill="lightgrey" stroke="black" cx="246.85" cy="-1039.76" rx="23.85" ry="23.85"/>
<text text-anchor="middle" x="246.85" y="-1035.08" font-family="Times,serif" font-size="14.00">30</text>
</g>
<!-- 34&#45;&gt;30 -->
<g id="edge41" class="edge">
<title>34&#45;&gt;30</title>
<path fill="none" stroke="red" d="M283.39,-1148.21C276.43,-1127.76 265.97,-1097 258.02,-1073.62"/>
<polygon fill="red" stroke="red" points="261.37,-1072.59 254.84,-1064.25 254.74,-1074.84 261.37,-1072.59"/>
<text text-anchor="middle" x="280.37" y="-1100.78" font-family="Times,serif" font-size="14.00">ε</text>
</g>
<!-- 32 -->
<g id="node42" class="node">
<title>32</title>
<ellipse fill="lightgrey" stroke="black" cx="312.85" cy="-1039.76" rx="23.85" ry="23.85"/>
<text text-anchor="middle" x="312.85" y="-1035.08" font-family="Times,serif" font-size="14.00">32</text>
</g>
<!-- 34&#45;&gt;32 -->
<g id="edge48" class="edge">
<title>34&#45;&gt;32</title>
<path fill="none" stroke="red" d="M294.73,-1147.32C298.16,-1127.18 303.19,-1097.55 307.09,-1074.65"/>
<polygon fill="red" stroke="red" points="310.53,-1075.3 308.75,-1064.86 303.63,-1074.13 310.53,-1075.3"/>
<text text-anchor="middle" x="309.48" y="-1100.78" font-family="Times,serif" font-size="14.00">ε</text>
</g>
<!-- 31 -->
<g id="node37" class="node">
<title>31</title>
<ellipse fill="lightgrey" stroke="black" cx="246.85" cy="-908.36" rx="23.85" ry="23.85"/>
<text text-anchor="middle" x="246.85" y="-903.68" font-family="Times,serif" font-size="14.00">31</text>
</g>
<!-- 30&#45;&gt;31 -->
<g id="edge42" class="edge">
<title>30&#45;&gt;31</title>
<path fill="none" stroke="black" d="M246.85,-1015.62C246.85,-995.57 246.85,-966.27 246.85,-943.51"/>
<polygon fill="black" stroke="black" points="250.35,-943.8 246.85,-933.8 243.35,-943.8 250.35,-943.8"/>
<text text-anchor="middle" x="250.98" y="-969.38" font-family="Times,serif" font-size="14.00">a</text>
</g>
<!-- 35 -->
<g id="node38" class="node">
<title>35</title>
<ellipse fill="lightgrey" stroke="black" cx="312.85" cy="-807.41" rx="23.85" ry="23.85"/>
<text text-anchor="middle" x="312.85" y="-802.73" font-family="Times,serif" font-size="14.00">35</text>
</g>
<!-- 31&#45;&gt;35 -->
<g id="edge43" class="edge">
<title>31&#45;&gt;35</title>
<path fill="none" stroke="red" d="M259.89,-887.81C269.47,-873.44 282.65,-853.68 293.46,-837.47"/>
<polygon fill="red" stroke="red" points="296.36,-839.44 299,-829.17 290.54,-835.55 296.36,-839.44"/>
<text text-anchor="middle" x="287.55" y="-853.21" font-family="Times,serif" font-size="14.00">ε</text>
</g>
<!-- 39 -->
<g id="node39" class="node">
<title>39</title>
<ellipse fill="lightgrey" stroke="black" cx="357.85" cy="-706.46" rx="23.85" ry="23.85"/>
<text text-anchor="middle" x="357.85" y="-701.78" font-family="Times,serif" font-size="14.00">39</text>
</g>
<!-- 35&#45;&gt;39 -->
<g id="edge44" class="edge">
<title>35&#45;&gt;39</title>
<path fill="none" stroke="red" d="M322.39,-785.42C328.5,-772 336.53,-754.34 343.41,-739.21"/>
<polygon fill="red" stroke="red" points="346.59,-740.68 347.54,-730.13 340.21,-737.78 346.59,-740.68"/>
<text text-anchor="middle" x="341.79" y="-752.26" font-family="Times,serif" font-size="14.00">ε</text>
</g>
<!-- 43 -->
<g id="node40" class="node">
<title>43</title>
<ellipse fill="lightgrey" stroke="black" cx="421.85" cy="-605.5" rx="23.85" ry="23.85"/>
<text text-anchor="middle" x="421.85" y="-600.83" font-family="Times,serif" font-size="14.00">43</text>
</g>
<!-- 39&#45;&gt;43 -->
<g id="edge45" class="edge">
<title>39&#45;&gt;43</title>
<path fill="none" stroke="red" d="M367.59,-684.44C373.15,-673.13 380.55,-659.13 388.35,-647.36 391.62,-642.42 395.38,-637.37 399.16,-632.58"/>
<polygon fill="red" stroke="red" points="401.77,-634.92 405.4,-624.97 396.35,-630.49 401.77,-634.92"/>
<text text-anchor="middle" x="392.1" y="-651.31" font-family="Times,serif" font-size="14.00">ε</text>
</g>
<!-- 43&#45;&gt;42 -->
<g id="edge46" class="edge">
<title>43&#45;&gt;42</title>
<path fill="none" stroke="red" d="M430.94,-628.09C438.44,-647.85 447.85,-678.1 447.85,-705.46 447.85,-1273.11 447.85,-1273.11 447.85,-1273.11 447.85,-1306 430.65,-1339.98 416.04,-1362.93"/>
<polygon fill="red" stroke="red" points="413.24,-1360.82 410.62,-1371.09 419.07,-1364.69 413.24,-1360.82"/>
<text text-anchor="middle" x="451.6" y="-969.38" font-family="Times,serif" font-size="14.00">ε</text>
</g>
<!-- 43&#45;&gt;45 -->
<g id="edge47" class="edge">
<title>43&#45;&gt;45</title>
<path fill="none" stroke="red" d="M430.16,-582.77C437.99,-562.29 449.87,-531.2 459.12,-507.03"/>
<polygon fill="red" stroke="red" points="462.31,-508.47 462.61,-497.88 455.77,-505.97 462.31,-508.47"/>
<text text-anchor="middle" x="458.65" y="-535.13" font-family="Times,serif" font-size="14.00">ε</text>
</g>
<!-- 33 -->
<g id="node43" class="node">
<title>33</title>
<ellipse fill="lightgrey" stroke="black" cx="312.85" cy="-908.36" rx="23.85" ry="23.85"/>
<text text-anchor="middle" x="312.85" y="-903.68" font-family="Times,serif" font-size="14.00">33</text>
</g>
<!-- 32&#45;&gt;33 -->
<g id="edge49" class="edge">
<title>32&#45;&gt;33</title>
<path fill="none" stroke="black" d="M312.85,-1015.62C312.85,-995.57 312.85,-966.27 312.85,-943.51"/>
<polygon fill="black" stroke="black" points="316.35,-943.8 312.85,-933.8 309.35,-943.8 316.35,-943.8"/>
<text text-anchor="middle" x="317.35" y="-969.38" font-family="Times,serif" font-size="14.00">b</text>
</g>
<!-- 33&#45;&gt;35 -->
<g id="edge50" class="edge">
<title>33&#45;&gt;35</title>
<path fill="none" stroke="red" d="M312.85,-884.16C312.85,-871.87 312.85,-856.55 312.85,-842.9"/>
<polygon fill="red" stroke="red" points="316.35,-842.97 312.85,-832.97 309.35,-842.97 316.35,-842.97"/>
<text text-anchor="middle" x="316.6" y="-853.21" font-family="Times,serif" font-size="14.00">ε</text>
</g>
<!-- 37 -->
<g id="node45" class="node">
<title>37</title>
<ellipse fill="lightgrey" stroke="black" cx="364.85" cy="-974.06" rx="23.85" ry="23.85"/>
<text text-anchor="middle" x="364.85" y="-969.38" font-family="Times,serif" font-size="14.00">37</text>
</g>
<!-- 36&#45;&gt;37 -->
<g id="edge52" class="edge">
<title>36&#45;&gt;37</title>
<path fill="none" stroke="black" d="M357.8,-1147.01C359.19,-1112.98 361.81,-1049.22 363.43,-1009.62"/>
<polygon fill="black" stroke="black" points="366.93,-1009.82 363.84,-999.69 359.93,-1009.53 366.93,-1009.82"/>
<text text-anchor="middle" x="364.84" y="-1100.78" font-family="Times,serif" font-size="14.00">0</text>
</g>
<!-- 37&#45;&gt;39 -->
<g id="edge53" class="edge">
<title>37&#45;&gt;39</title>
<path fill="none" stroke="red" d="M364.24,-949.95C363.01,-903.15 360.21,-796.96 358.76,-741.94"/>
<polygon fill="red" stroke="red" points="362.27,-742.11 358.5,-732.21 355.27,-742.3 362.27,-742.11"/>
<text text-anchor="middle" x="365.76" y="-853.21" font-family="Times,serif" font-size="14.00">ε</text>
</g>
<!-- 41 -->
<g id="node47" class="node">
<title>41</title>
<ellipse fill="lightgrey" stroke="black" cx="408.85" cy="-1105.46" rx="23.85" ry="23.85"/>
<text text-anchor="middle" x="408.85" y="-1100.78" font-family="Times,serif" font-size="14.00">41</text>
</g>
<!-- 40&#45;&gt;41 -->
<g id="edge55" class="edge">
<title>40&#45;&gt;41</title>
<path fill="none" stroke="black" d="M397.69,-1247.87C399.89,-1219.92 403.61,-1172.77 406.15,-1140.67"/>
<polygon fill="black" stroke="black" points="409.61,-1141.33 406.91,-1131.09 402.63,-1140.78 409.61,-1141.33"/>
<text text-anchor="middle" x="404.93" y="-1216.96" font-family="Times,serif" font-size="14.00">1</text>
</g>
<!-- 41&#45;&gt;43 -->
<g id="edge56" class="edge">
<title>41&#45;&gt;43</title>
<path fill="none" stroke="red" d="M409.13,-1081.55C409.43,-1055.69 409.85,-1012.35 409.85,-975.06 409.85,-975.06 409.85,-975.06 409.85,-705.46 409.85,-683.67 412.75,-659.39 415.7,-640.33"/>
<polygon fill="red" stroke="red" points="419.12,-641.13 417.27,-630.7 412.21,-640 419.12,-641.13"/>
<text text-anchor="middle" x="413.6" y="-853.21" font-family="Times,serif" font-size="14.00">ε</text>
</g>
</g>
</svg>
